<svg width="44" height="44" viewBox="0 0 44 44" fill="none" xmlns="http://www.w3.org/2000/svg">
<circle cx="22" cy="22" r="22" fill="#FEE500"/>
<path d="M22.0638 10.6179C15.2191 10.6179 9.69922 15.0338 9.69922 20.3947C9.69922 23.8744 11.9955 26.9214 15.4399 28.6613L14.2741 33.0154C14.2521 33.0807 14.2487 33.1507 14.2643 33.2178C14.2799 33.2848 14.3139 33.3462 14.3624 33.3951C14.4332 33.4575 14.5242 33.492 14.6185 33.4922C14.6968 33.486 14.771 33.4551 14.8305 33.4039L19.847 30.0214C20.5875 30.1236 21.3339 30.1767 22.0814 30.1803C28.9173 30.1803 34.446 25.7644 34.446 20.3947C34.446 15.025 28.8996 10.6179 22.0638 10.6179Z" fill="#392020"/>
<path d="M14.0264 18.8491H12.6752C12.5077 18.854 12.3423 18.8111 12.1983 18.7255C12.1343 18.6854 12.0793 18.6326 12.0368 18.5702C11.9942 18.5079 11.965 18.4375 11.951 18.3634C11.9467 18.3163 11.9467 18.2691 11.951 18.2221C11.9468 18.1342 11.9638 18.0465 12.0007 17.9665C12.0376 17.8866 12.0933 17.8167 12.1629 17.7628C12.3169 17.6513 12.5027 17.5924 12.6928 17.595H16.7643C16.9331 17.5891 17.0997 17.6353 17.2412 17.7275C17.3067 17.7658 17.3628 17.8182 17.4056 17.8808C17.4483 17.9434 17.4767 18.0147 17.4885 18.0896C17.4928 18.1337 17.4928 18.1781 17.4885 18.2221C17.4927 18.3113 17.4757 18.4003 17.4388 18.4816C17.402 18.563 17.3464 18.6344 17.2766 18.6901C17.1263 18.8015 16.9423 18.8577 16.7555 18.8491H15.4484V23.4947C15.4537 23.5937 15.4384 23.6926 15.4034 23.7853C15.3684 23.8781 15.3146 23.9626 15.2452 24.0334C15.1788 24.1011 15.0988 24.1542 15.0106 24.1892C14.9224 24.2242 14.8278 24.2403 14.733 24.2365C14.5671 24.2413 14.4048 24.1883 14.2737 24.0865C14.149 23.987 14.0643 23.8458 14.0353 23.689C14.0266 23.6245 14.0266 23.5592 14.0353 23.4947L14.0264 18.8491Z" fill="#FEE500"/>
<path d="M17.8783 17.9393C17.9172 17.794 18.0084 17.6681 18.1345 17.586C18.2688 17.5099 18.4218 17.4732 18.576 17.4801H18.9117C19.0753 17.4742 19.2374 17.514 19.3797 17.5949C19.5306 17.6963 19.6378 17.8508 19.68 18.0276L21.4464 23.0176C21.4922 23.1478 21.5305 23.2806 21.5612 23.4151C21.5642 23.471 21.5642 23.527 21.5612 23.5829C21.5642 23.669 21.5483 23.7546 21.5148 23.834C21.4812 23.9133 21.4308 23.9844 21.3669 24.0422C21.305 24.1056 21.2307 24.1556 21.1487 24.189C21.0666 24.2224 20.9786 24.2386 20.89 24.2364C20.7538 24.25 20.617 24.2173 20.5016 24.1436C20.3862 24.0699 20.299 23.9595 20.2541 23.8302L19.8832 22.7439H17.5604L17.1895 23.8302C17.1456 23.962 17.0573 24.0746 16.9398 24.1487C16.8222 24.2228 16.6826 24.2538 16.5447 24.2364C16.3954 24.2403 16.2491 24.1936 16.1296 24.1039C16.0132 24.0114 15.9347 23.8795 15.9088 23.7331C15.9041 23.6831 15.9041 23.6328 15.9088 23.5829C15.8937 23.4952 15.8937 23.4057 15.9088 23.318C15.9088 23.2208 15.9707 23.1148 16.006 23.0176L17.8783 17.9393ZM18.7615 19.0964L17.9225 21.7459H19.5917L18.7615 19.0964Z" fill="#FEE500"/>
<path d="M21.7635 18.2222C21.7545 18.024 21.8243 17.8303 21.9578 17.6835C22.0256 17.615 22.107 17.5616 22.1968 17.5266C22.2865 17.4916 22.3826 17.4758 22.4788 17.4802C22.6443 17.4783 22.8057 17.5311 22.9381 17.6304C23.0608 17.734 23.1422 17.8781 23.1677 18.0366C23.1764 18.0982 23.1764 18.1607 23.1677 18.2222V22.8677H25.5965C25.7648 22.8655 25.9303 22.9114 26.0734 23.0001C26.1377 23.0398 26.1929 23.0925 26.2355 23.1549C26.2781 23.2173 26.3072 23.2879 26.3207 23.3623C26.3207 23.3623 26.3207 23.4506 26.3207 23.4948C26.3249 23.5827 26.3078 23.6703 26.2709 23.7503C26.234 23.8302 26.1784 23.9002 26.1087 23.954C25.9547 24.0655 25.7689 24.1243 25.5788 24.1218H22.5937C22.4035 24.134 22.2145 24.0845 22.0549 23.9805C21.9121 23.8738 21.817 23.7152 21.79 23.539C21.7835 23.4419 21.7835 23.3445 21.79 23.2474L21.7635 18.2222Z" fill="#FEE500"/>
<path d="M26.4799 18.2223C26.4747 18.0247 26.544 17.8323 26.6742 17.6836C26.8066 17.5633 26.9764 17.4923 27.155 17.4826C27.3336 17.4729 27.51 17.5252 27.6546 17.6305C27.7799 17.7332 27.8645 17.8772 27.893 18.0367C27.8974 18.0985 27.8974 18.1605 27.893 18.2223V20.386L30.1275 17.8071C30.2136 17.7191 30.305 17.6366 30.4013 17.5599C30.492 17.5059 30.596 17.4783 30.7016 17.4803C30.8559 17.4795 31.0069 17.5257 31.1343 17.6128C31.1944 17.6533 31.2456 17.7054 31.2851 17.7661C31.3246 17.8268 31.3514 17.8948 31.3639 17.9661C31.3675 17.9836 31.3675 18.0017 31.3639 18.0192C31.3597 18.0396 31.3597 18.0606 31.3639 18.0809C31.3636 18.1739 31.3393 18.2652 31.2933 18.3459C31.2464 18.4314 31.1901 18.5113 31.1255 18.5843L29.6594 20.1918L31.4258 22.9296V23.0179C31.5175 23.1445 31.589 23.2846 31.6377 23.4331V23.4772C31.6479 23.5795 31.6332 23.6828 31.5947 23.7782C31.5563 23.8735 31.4953 23.9581 31.4169 24.0247C31.2696 24.1361 31.0893 24.1952 30.9047 24.1926C30.782 24.1977 30.6601 24.1702 30.5514 24.113C30.4338 24.0342 30.3369 23.9282 30.2688 23.8039L28.6261 21.1544L27.84 21.9758V23.4507C27.8453 23.6483 27.776 23.8406 27.6457 23.9894C27.5759 24.0576 27.4929 24.1109 27.4018 24.1458C27.3107 24.1807 27.2133 24.1967 27.1158 24.1926C26.9529 24.196 26.7937 24.1429 26.6654 24.0424C26.5407 23.943 26.456 23.8019 26.427 23.645C26.4182 23.5806 26.4182 23.5151 26.427 23.4507L26.4799 18.2223Z" fill="#FEE500"/>
</svg>
