<svg width="24" height="24" viewBox="0 0 24 24" fill="none" xmlns="http://www.w3.org/2000/svg">
<path d="M13.5 2C13.7121 2 13.9154 2.08441 14.0654 2.23438L19.7646 7.93457C19.9146 8.08455 19.999 8.28792 19.999 8.5V11H20C20.5523 11 21 11.4477 21 12V18C21 18.5523 20.5523 19 20 19H19.999V20.2002C19.999 21.1943 19.1933 22 18.1992 22H5.7998C4.80578 21.9999 4 21.1942 4 20.2002V3.7998C4.00011 2.80585 4.80585 2.00011 5.7998 2H13.5ZM5.7998 3.59961C5.6895 3.59971 5.59971 3.6895 5.59961 3.7998V20.2002C5.59961 20.3106 5.68944 20.4003 5.7998 20.4004H18.1992C18.3097 20.4004 18.3994 20.3107 18.3994 20.2002V19H8C7.44772 19 7 18.5523 7 18V12C7 11.4477 7.44772 11 8 11H18.3994V9.2998H14.5C13.5059 9.2998 12.7002 8.49411 12.7002 7.5V3.59961H5.7998ZM14.2998 7.5C14.2998 7.61046 14.3895 7.7002 14.5 7.7002H17.2686L14.2998 4.73145V7.5Z" fill="#33363D"/>
<path d="M8.47803 17V12.7515H9.74023C10.3812 12.7515 10.8753 12.9341 11.2227 13.2993C11.57 13.6646 11.7437 14.1891 11.7437 14.873C11.7437 15.1058 11.7222 15.3242 11.6792 15.5283C11.6362 15.7288 11.5646 15.9204 11.4644 16.103C11.3677 16.2856 11.2441 16.4432 11.0938 16.5757C10.9434 16.7046 10.7518 16.8084 10.519 16.8872C10.2899 16.9624 10.0285 17 9.73486 17H8.47803ZM9.18701 16.4038H9.6543C10.5566 16.4038 11.0078 15.8936 11.0078 14.873C11.0078 14.3288 10.8896 13.9403 10.6533 13.7075C10.417 13.4712 10.0876 13.353 9.66504 13.353H9.18701V16.4038ZM12.1841 14.8784C12.1841 14.2124 12.3506 13.6753 12.6836 13.2671C13.0166 12.8589 13.4588 12.6548 14.0103 12.6548C14.5617 12.6548 15.0021 12.8589 15.3315 13.2671C15.6646 13.6717 15.8311 14.2088 15.8311 14.8784C15.8311 15.548 15.6646 16.0851 15.3315 16.4897C14.9985 16.8944 14.5581 17.0967 14.0103 17.0967C13.4588 17.0967 13.0166 16.8944 12.6836 16.4897C12.3506 16.0851 12.1841 15.548 12.1841 14.8784ZM12.9146 14.8784C12.9146 15.3761 13.0112 15.77 13.2046 16.0601C13.4015 16.3465 13.6701 16.4897 14.0103 16.4897C14.3468 16.4897 14.6118 16.3465 14.8052 16.0601C15.0021 15.7736 15.1006 15.3797 15.1006 14.8784C15.1006 14.3843 15.0039 13.9922 14.8105 13.7021C14.6208 13.4085 14.354 13.2617 14.0103 13.2617C13.6701 13.2617 13.4015 13.4085 13.2046 13.7021C13.0112 13.9922 12.9146 14.3843 12.9146 14.8784ZM16.2822 14.873C16.2822 14.1927 16.4577 13.6538 16.8086 13.2563C17.1595 12.8553 17.6125 12.6548 18.1675 12.6548C18.5256 12.6548 18.8317 12.7533 19.0859 12.9502C19.3438 13.1471 19.5353 13.3906 19.6606 13.6807L19.0537 13.8794C18.8245 13.4676 18.5256 13.2617 18.1567 13.2617C17.8058 13.2617 17.5265 13.4085 17.3188 13.7021C17.1147 13.9922 17.0127 14.3825 17.0127 14.873C17.0127 15.3708 17.1165 15.7646 17.3242 16.0547C17.5319 16.3447 17.8094 16.4897 18.1567 16.4897C18.3823 16.4897 18.5811 16.4217 18.7529 16.2856C18.9284 16.1496 19.0555 15.9831 19.1343 15.7861L19.7681 15.9849C19.7144 16.1138 19.6445 16.2391 19.5586 16.3608C19.4762 16.479 19.3706 16.5972 19.2417 16.7153C19.1164 16.8299 18.9606 16.923 18.7744 16.9946C18.5882 17.0627 18.3859 17.0967 18.1675 17.0967C17.6232 17.0967 17.172 16.8997 16.814 16.5059C16.4595 16.1084 16.2822 15.5641 16.2822 14.873Z" fill="white"/>
</svg>
