<svg width="21" height="21" viewBox="0 0 21 21" fill="none" xmlns="http://www.w3.org/2000/svg">
<path d="M19 13.05V7.95C19 3.7 17.3 2 13.05 2H7.95C3.7 2 2 3.7 2 7.95V13.05C2 17.3 3.7 19 7.95 19H13.05C17.3 19 19 17.3 19 13.05Z" stroke="#33363D" stroke-width="1.5" stroke-linecap="round" stroke-linejoin="round"/>
<path d="M2 7H19" stroke="#33363D" stroke-width="1.5" stroke-linecap="round" stroke-linejoin="round"/>
<path d="M8 2V6" stroke="#33363D" stroke-width="1.5" stroke-linecap="round" stroke-linejoin="round"/>
<path d="M13 2V6" stroke="#33363D" stroke-width="1.5" stroke-linecap="round" stroke-linejoin="round"/>
<path d="M9 13V12.1805C9 11.1288 9.79309 10.6986 10.7608 11.2244L11.5175 11.6342L12.2742 12.0439C13.2419 12.5698 13.2419 13.4302 12.2742 13.9561L11.5175 14.3658L10.7608 14.7756C9.79309 15.3014 9 14.8712 9 13.8195V13V13Z" stroke="#33363D" stroke-width="1.5" stroke-miterlimit="10" stroke-linecap="round" stroke-linejoin="round"/>
</svg>
