<svg width="24" height="24" viewBox="0 0 24 24" fill="none" xmlns="http://www.w3.org/2000/svg">
<path d="M13.5 2C13.7121 2 13.9154 2.08441 14.0654 2.23438L19.7646 7.93457C19.9146 8.08455 19.999 8.28792 19.999 8.5V11H20C20.5523 11 21 11.4477 21 12V18C21 18.5523 20.5523 19 20 19H19.999V20.2002C19.999 21.1943 19.1933 22 18.1992 22H5.7998C4.80578 21.9999 4 21.1942 4 20.2002V3.7998C4.00011 2.80585 4.80585 2.00011 5.7998 2H13.5ZM5.7998 3.59961C5.6895 3.59971 5.59971 3.6895 5.59961 3.7998V20.2002C5.59961 20.3106 5.68944 20.4003 5.7998 20.4004H18.1992C18.3097 20.4004 18.3994 20.3107 18.3994 20.2002V19H8C7.44772 19 7 18.5523 7 18V12C7 11.4477 7.44772 11 8 11H18.3994V9.2998H14.5C13.5059 9.2998 12.7002 8.49411 12.7002 7.5V3.59961H5.7998ZM14.2998 7.5C14.2998 7.61046 14.3895 7.7002 14.5 7.7002H17.2686L14.2998 4.73145V7.5Z" fill="#33363D"/>
<path d="M8.01074 17L9.36963 14.8193L8.08057 12.7515H8.91846L9.43408 13.6753C9.46631 13.7362 9.52002 13.8364 9.59521 13.9761C9.67399 14.1121 9.73307 14.2178 9.77246 14.293H9.79395C9.80469 14.2715 9.92106 14.0656 10.1431 13.6753L10.6641 12.7515H11.4966L10.2021 14.8193L11.5664 17H10.7446L10.1646 16.0063C10.1144 15.924 9.99089 15.7091 9.79395 15.3618H9.77246C9.56478 15.7342 9.44482 15.9491 9.4126 16.0063L8.83789 17H8.01074ZM12.0391 17V12.7515H12.748V16.3984H14.6709V17H12.0391ZM14.8696 16.0923L15.4927 15.8828C15.5929 16.0618 15.738 16.2087 15.9277 16.3232C16.1175 16.4342 16.327 16.4897 16.5562 16.4897C16.7925 16.4897 16.9823 16.4325 17.1255 16.3179C17.2687 16.2033 17.3403 16.0547 17.3403 15.8721C17.3403 15.6787 17.2633 15.5283 17.1094 15.4209C16.959 15.3135 16.737 15.2096 16.4434 15.1094C16.0244 14.9697 15.7415 14.8587 15.5947 14.7764C15.2116 14.5579 15.02 14.241 15.02 13.8257C15.02 13.4748 15.1579 13.1919 15.4336 12.9771C15.7093 12.7622 16.0692 12.6548 16.5132 12.6548C16.8784 12.6548 17.1899 12.7407 17.4478 12.9126C17.7091 13.0809 17.8989 13.2975 18.0171 13.5625L17.4209 13.7612C17.1917 13.4282 16.8874 13.2617 16.5078 13.2617C16.2751 13.2617 16.0907 13.3136 15.9546 13.4175C15.8185 13.5213 15.7505 13.6574 15.7505 13.8257C15.7505 13.8758 15.7559 13.9242 15.7666 13.9707C15.7773 14.0137 15.7988 14.0549 15.8311 14.0942C15.8633 14.1336 15.8919 14.1676 15.917 14.1963C15.9421 14.2249 15.9832 14.2554 16.0405 14.2876C16.0978 14.3198 16.1426 14.3449 16.1748 14.3628C16.2106 14.3807 16.2679 14.404 16.3467 14.4326C16.4255 14.4613 16.481 14.481 16.5132 14.4917C16.549 14.5024 16.6134 14.5239 16.7065 14.5562C16.7996 14.5848 16.8623 14.6045 16.8945 14.6152C17.0592 14.6689 17.2043 14.7262 17.3296 14.7871C17.4549 14.848 17.5767 14.9268 17.6948 15.0234C17.8166 15.1165 17.9097 15.2329 17.9741 15.3726C18.0386 15.5122 18.0708 15.6698 18.0708 15.8452C18.0708 16.2427 17.9276 16.5506 17.6411 16.769C17.3582 16.9875 16.9912 17.0967 16.54 17.0967C16.1497 17.0967 15.8078 17.0072 15.5142 16.8281C15.2205 16.6455 15.0057 16.4002 14.8696 16.0923Z" fill="white"/>
</svg>
