<svg width="44" height="44" viewBox="0 0 44 44" fill="none" xmlns="http://www.w3.org/2000/svg">
<g clip-path="url(#clip0_165_9622)">
<path d="M44 22C44 9.84973 34.1503 0 22 0C9.84973 0 0 9.84973 0 22C0 32.9807 8.04504 42.0823 18.5625 43.7327V28.3594H12.9766V22H18.5625V17.1531C18.5625 11.6394 21.847 8.59375 26.8722 8.59375C29.2785 8.59375 31.7969 9.02344 31.7969 9.02344V14.4375H29.0228C26.29 14.4375 25.4375 16.1335 25.4375 17.875V22H31.5391L30.5637 28.3594H25.4375V43.7327C35.955 42.0823 44 32.9807 44 22Z" fill="#1877F2"/>
<path d="M30.5637 28.3594L31.5391 22H25.4375V17.875C25.4375 16.1352 26.29 14.4375 29.0228 14.4375H31.7969V9.02344C31.7969 9.02344 29.2793 8.59375 26.8722 8.59375C21.847 8.59375 18.5625 11.6394 18.5625 17.1531V22H12.9766V28.3594H18.5625V43.7327C20.8403 44.0891 23.1597 44.0891 25.4375 43.7327V28.3594H30.5637Z" fill="white"/>
</g>
<defs>
<clipPath id="clip0_165_9622">
<rect width="44" height="44" fill="white"/>
</clipPath>
</defs>
</svg>
