<svg width="50" height="50" viewBox="0 0 50 50" fill="none" xmlns="http://www.w3.org/2000/svg">
<path d="M40 28.5119C42.6403 30.4846 45 35.4514 45 38.5118C45 39.4652 44.3044 40.2381 43.4463 40.2381H42.5M32.5 20.426C34.208 19.438 35.3571 17.5913 35.3571 15.4762C35.3571 13.3611 34.208 11.5144 32.5 10.5264M6.55369 40.2381H33.9225C34.7806 40.2381 35.4762 39.4652 35.4762 38.5118C35.4762 32.5188 30.4694 27.6606 20.2381 27.6606C10.0068 27.6606 5 32.5188 5 38.5118C5 39.4652 5.69561 40.2381 6.55369 40.2381ZM25.9524 15.4762C25.9524 18.6321 23.394 21.1905 20.2381 21.1905C17.0822 21.1905 14.5238 18.6321 14.5238 15.4762C14.5238 12.3203 17.0822 9.7619 20.2381 9.7619C23.394 9.7619 25.9524 12.3203 25.9524 15.4762Z" stroke="#33363D" stroke-width="3" stroke-linecap="round"/>
</svg>
