<svg width="24" height="24" viewBox="0 0 24 24" fill="none" xmlns="http://www.w3.org/2000/svg">
<path d="M19.1992 3C20.1933 3 20.9989 3.80578 20.999 4.7998V19.2002C20.999 20.1943 20.1933 21 19.1992 21H4.7998C3.80578 20.9999 3 20.1942 3 19.2002V4.7998C3.00011 3.80585 3.80585 3.00011 4.7998 3H19.1992ZM4.59961 15.0352V19.2002C4.59961 19.3106 4.68944 19.4003 4.7998 19.4004H19.1992C19.3097 19.4004 19.3994 19.3107 19.3994 19.2002V19.0576L8.55957 11.5166L4.59961 15.0352ZM4.7998 4.59961C4.6895 4.59971 4.59971 4.6895 4.59961 4.7998V12.8955L7.96777 9.90234C8.24407 9.65675 8.65259 9.63265 8.95605 9.84375L19.3994 17.1084V4.7998C19.3993 4.68944 19.3096 4.59961 19.1992 4.59961H4.7998ZM15.6982 6C16.9684 6 17.9979 7.02964 17.998 8.2998C17.998 9.57006 16.9685 10.5996 15.6982 10.5996C14.4281 10.5995 13.3984 9.56999 13.3984 8.2998C13.3985 7.0297 14.4281 6.00011 15.6982 6ZM15.6982 7.59961C15.3118 7.59971 14.9982 7.91336 14.998 8.2998C14.998 8.68634 15.3117 8.99989 15.6982 9C16.0848 9 16.3984 8.6864 16.3984 8.2998C16.3983 7.9133 16.0848 7.59961 15.6982 7.59961Z" fill="#33363D"/>
</svg>
