<svg width="24" height="24" viewBox="0 0 24 24" fill="none" xmlns="http://www.w3.org/2000/svg">
<path d="M13.5 2C13.7121 2 13.9154 2.08441 14.0654 2.23438L19.7646 7.93457C19.9146 8.08455 19.999 8.28792 19.999 8.5V11H20C20.5523 11 21 11.4477 21 12V18C21 18.5523 20.5523 19 20 19H19.999V20.2002C19.999 21.1943 19.1933 22 18.1992 22H5.7998C4.80578 21.9999 4 21.1942 4 20.2002V3.7998C4.00011 2.80585 4.80585 2.00011 5.7998 2H13.5ZM5.7998 3.59961C5.6895 3.59971 5.59971 3.6895 5.59961 3.7998V20.2002C5.59961 20.3106 5.68944 20.4003 5.7998 20.4004H18.1992C18.3097 20.4004 18.3994 20.3107 18.3994 20.2002V19H8C7.44772 19 7 18.5523 7 18V12C7 11.4477 7.44772 11 8 11H18.3994V9.2998H14.5C13.5059 9.2998 12.7002 8.49411 12.7002 7.5V3.59961H5.7998ZM14.2998 7.5C14.2998 7.61046 14.3895 7.7002 14.5 7.7002H17.2686L14.2998 4.73145V7.5Z" fill="#33363D"/>
<path d="M10.5049 13C11.4226 13.0002 11.9149 13.5586 11.915 14.3271C11.915 15.096 11.4168 15.6494 10.4932 15.6494H9.71875V17.0049H9V13H10.5049ZM13.8779 13C15.0726 13 15.7979 13.7526 15.7979 14.9971C15.7977 16.2468 15.073 17.0048 13.8564 17.0049H12.4961V13H13.8779ZM19 13.6025H17.1523V14.6982H18.8232V15.3008H17.1523V17.0049H16.4336V13H19V13.6025ZM13.2148 16.3799H13.8174C14.6524 16.3799 15.078 15.9205 15.0781 14.9971C15.0781 14.079 14.6528 13.6251 13.8398 13.625H13.2148V16.3799ZM9.71875 15.0576H10.3936C10.9356 15.0576 11.1797 14.753 11.1797 14.3271C11.1796 13.8959 10.9355 13.6025 10.3936 13.6025H9.71875V15.0576Z" fill="white"/>
</svg>
