<svg width="44" height="44" viewBox="0 0 44 44" fill="none" xmlns="http://www.w3.org/2000/svg">
<g clip-path="url(#clip0_165_9627)">
<path d="M33.9478 44H10.0522C4.51886 44 0 39.4709 0 33.9478V10.0522C0 4.52911 4.52911 0 10.0522 0H33.9478C39.4811 0 44 4.52911 44 10.0522V33.9478C44 39.4811 39.4811 44 33.9478 44Z" fill="#F4F5F6"/>
<path d="M32.4623 8.82251H11.3947C8.41288 8.82251 5.98438 11.2613 5.98438 14.2328V27.3283C5.98438 30.3102 8.42313 32.7387 11.3947 32.7387H18.8339L20.1148 34.952L21.3752 37.1346C21.6006 37.5342 22.1744 37.5342 22.4101 37.1346L23.6705 34.952L24.9513 32.7387H32.4725C35.4543 32.7387 37.8828 30.2999 37.8828 27.3283V14.2431C37.8828 11.2613 35.4441 8.82251 32.4623 8.82251Z" fill="url(#paint0_linear_165_9627)"/>
<path d="M23.4037 18.4136C21.7745 18.4136 20.4526 19.7149 20.4526 21.3237C20.4526 22.9324 21.7745 24.2338 23.4037 24.2338C25.033 24.2338 26.3548 22.9324 26.3548 21.3237C26.3548 19.7149 25.0432 18.4136 23.4037 18.4136ZM23.4037 22.7173C22.625 22.7173 21.9897 22.0922 21.9897 21.3237C21.9897 20.5552 22.625 19.9301 23.4037 19.9301C24.1825 19.9301 24.8178 20.5552 24.8178 21.3237C24.8178 22.0922 24.1927 22.7173 23.4037 22.7173Z" fill="white"/>
<path d="M14.069 18.4136C13.4337 18.4136 12.8394 18.6595 12.3783 19.0796V16.6716H10.7388V24.1006H12.3783V23.578C12.8394 23.9879 13.4234 24.2441 14.069 24.2441C15.5343 24.2441 16.7229 22.9427 16.7229 21.334C16.7229 19.7252 15.5445 18.4136 14.069 18.4136ZM13.7411 22.7788C13.1365 22.7788 12.6139 22.4201 12.3885 21.8975C12.3168 21.7233 12.2656 21.5287 12.2656 21.3237C12.2656 21.1188 12.3065 20.9241 12.3885 20.7499C12.6139 20.2273 13.1365 19.8687 13.7411 19.8687C14.5608 19.8687 15.2166 20.5142 15.2166 21.3237C15.2166 22.1332 14.5608 22.7788 13.7411 22.7788Z" fill="white"/>
<path d="M31.4682 18.5368V18.9979C31.0071 18.6393 30.4332 18.4241 29.8184 18.4241C28.3121 18.4241 27.0928 19.6844 27.0928 21.2317C27.0928 22.779 28.3121 24.0393 29.8184 24.0393C30.4435 24.0393 31.0173 23.8242 31.4682 23.4655V24.2443C31.4682 24.2443 31.3042 25.0128 30.1566 25.0128V26.4576C30.1566 26.4576 31.3965 26.6011 32.5031 25.4944C32.5031 25.4944 33.0155 24.9513 33.1282 24.234V18.5368H31.4682ZM30.1258 22.656C29.2958 22.656 28.6298 22.0105 28.6298 21.2215C28.6298 20.4325 29.3061 19.7869 30.1258 19.7869C30.7099 19.7869 31.2223 20.1148 31.4682 20.5862C31.5707 20.7808 31.6219 20.996 31.6219 21.2215C31.6219 21.4469 31.5604 21.6723 31.4682 21.8568C31.2223 22.3384 30.7099 22.656 30.1258 22.656Z" fill="white"/>
<path d="M16.9072 16.5283V18.0141C16.9072 18.0141 17.6655 18.1165 17.809 18.8543V24.1007H19.4997V18.8543V18.8133C19.3972 18.0756 18.9566 17.5222 18.9566 17.5222C17.9934 16.3848 16.9072 16.5283 16.9072 16.5283Z" fill="white"/>
</g>
<defs>
<linearGradient id="paint0_linear_165_9627" x1="21.9317" y1="37.4322" x2="21.9317" y2="8.82539" gradientUnits="userSpaceOnUse">
<stop stop-color="#00D44D"/>
<stop offset="1" stop-color="#00E56D"/>
</linearGradient>
<clipPath id="clip0_165_9627">
<rect width="44" height="44" fill="white"/>
</clipPath>
</defs>
</svg>
