<svg width="153" height="24" viewBox="0 0 153 24" fill="none" xmlns="http://www.w3.org/2000/svg">
<path d="M0.260422 2.75597V0.363974H8.81442C9.52509 0.363974 10.0278 0.55464 10.3224 0.935974C10.6171 1.29997 10.7644 1.79397 10.7644 2.41797H15.0804V-2.63453e-05H18.0444V10.322C18.0444 11.1886 17.8538 11.9426 17.4724 12.584C17.1084 13.2253 16.6144 13.78 15.9904 14.248C16.3891 14.716 16.7011 15.2446 16.9264 15.834C17.1691 16.4233 17.2904 17.056 17.2904 17.732C17.2904 18.5466 17.1171 19.2833 16.7704 19.942C16.4411 20.618 15.9991 21.1986 15.4444 21.684C14.8724 22.1693 14.2138 22.542 13.4684 22.802C12.7231 23.062 11.9344 23.192 11.1024 23.192C10.2531 23.192 9.44709 23.062 8.68442 22.802C7.93909 22.542 7.28042 22.1693 6.70842 21.684C6.15376 21.216 5.71176 20.644 5.38242 19.968C5.05309 19.292 4.88842 18.5466 4.88842 17.732C4.88842 16.9173 5.05309 16.172 5.38242 15.496C5.71176 14.82 6.15376 14.2393 6.70842 13.754C7.28042 13.2686 7.93909 12.896 8.68442 12.636C9.44709 12.3586 10.2531 12.22 11.1024 12.22C11.6571 12.22 12.1944 12.2893 12.7144 12.428C13.2518 12.5493 13.7544 12.714 14.2224 12.922C14.5171 12.6273 14.7338 12.272 14.8724 11.856C15.0111 11.44 15.0804 10.9113 15.0804 10.27V9.87997H10.1144V7.53997H15.0804V4.75797H10.3224C9.69842 6.47397 8.57176 8.05997 6.94242 9.51597C5.33042 10.9546 3.44109 12.1766 1.27442 13.182L0.000421971 10.79C0.832422 10.4086 1.64709 9.98397 2.44442 9.51597C3.24176 9.03064 3.97842 8.50197 4.65442 7.92997C5.33042 7.35797 5.91976 6.74264 6.42242 6.08397C6.94242 5.40797 7.33242 4.66264 7.59242 3.84797C7.69642 3.46664 7.70509 3.18931 7.61842 3.01597C7.53176 2.84264 7.33242 2.75597 7.02042 2.75597H0.260422ZM14.2484 17.732C14.2484 16.796 13.9538 16.042 13.3644 15.47C12.7924 14.8806 12.0384 14.586 11.1024 14.586C10.1491 14.586 9.36909 14.8806 8.76242 15.47C8.17309 16.042 7.87842 16.796 7.87842 17.732C7.87842 18.668 8.17309 19.4133 8.76242 19.968C9.36909 20.54 10.1491 20.826 11.1024 20.826C12.0384 20.826 12.7924 20.54 13.3644 19.968C13.9538 19.4133 14.2484 18.668 14.2484 17.732ZM40.0043 20.982H37.0143V0.259973H40.0043V20.982ZM23.9363 16.952L22.3503 14.742C23.4423 13.9793 24.4216 13.2253 25.2883 12.48C26.1723 11.7173 26.9349 10.9373 27.5763 10.14C28.2349 9.32531 28.7723 8.47597 29.1883 7.59197C29.6043 6.69064 29.9076 5.71131 30.0983 4.65397C30.1329 4.39397 30.1329 4.15131 30.0983 3.92597C30.0636 3.68331 29.8643 3.56197 29.5003 3.56197H22.3243V1.14397H31.4243C32.2043 1.14397 32.7243 1.39531 32.9843 1.89797C33.2443 2.40064 33.3483 2.98131 33.2963 3.63997C33.1749 4.81864 32.8889 6.01464 32.4383 7.22797C32.0049 8.42397 31.3983 9.59397 30.6183 10.738C29.8383 11.882 28.8936 12.9826 27.7843 14.04C26.6749 15.0973 25.3923 16.068 23.9363 16.952ZM54.2941 12.558L54.8661 14.794C54.0514 15.158 53.1068 15.4353 52.0321 15.626C50.9574 15.7993 49.9694 15.886 49.0681 15.886H47.3001C46.1908 15.886 45.3848 15.6693 44.8821 15.236C44.3794 14.7853 44.1281 14.066 44.1281 13.078V1.14397H53.3841V3.50997H46.9621V12.662C46.9621 12.974 47.0228 13.1906 47.1441 13.312C47.2828 13.416 47.4994 13.468 47.7941 13.468H49.0161C49.7788 13.468 50.6628 13.3986 51.6681 13.26C52.6908 13.104 53.5661 12.87 54.2941 12.558ZM58.6621 20.462H55.8801V9.54197H51.2781V6.99397H55.8801V0.259973H58.6621V20.462ZM63.9141 20.982H61.1321V0.259973H63.9141V20.982ZM85.485 0.259973V20.982H82.495V0.259973H85.485ZM79.271 8.13797C79.271 9.10864 79.1236 10.0186 78.829 10.868C78.5343 11.7 78.1096 12.4193 77.555 13.026C77.0176 13.65 76.3416 14.144 75.527 14.508C74.7296 14.8546 73.8283 15.028 72.823 15.028C71.8003 15.028 70.8816 14.8546 70.067 14.508C69.2696 14.144 68.6023 13.65 68.065 13.026C67.5103 12.4193 67.0856 11.7 66.791 10.868C66.5136 10.0186 66.375 9.10864 66.375 8.13797C66.375 7.18464 66.5136 6.29197 66.791 5.45997C67.0856 4.61064 67.5103 3.87397 68.065 3.24997C68.6196 2.62597 69.2956 2.13197 70.093 1.76797C70.8903 1.40397 71.8003 1.22197 72.823 1.22197C73.8283 1.22197 74.7296 1.40397 75.527 1.76797C76.3416 2.13197 77.0176 2.62597 77.555 3.24997C78.1096 3.87397 78.5343 4.61064 78.829 5.45997C79.1236 6.29197 79.271 7.18464 79.271 8.13797ZM76.359 8.13797C76.359 7.54864 76.281 6.98531 76.125 6.44797C75.969 5.91064 75.7436 5.44264 75.449 5.04397C75.1543 4.64531 74.7816 4.32464 74.331 4.08197C73.8976 3.83931 73.395 3.71797 72.823 3.71797C72.2336 3.71797 71.7223 3.83931 71.289 4.08197C70.8556 4.32464 70.4916 4.64531 70.197 5.04397C69.9023 5.44264 69.677 5.91064 69.521 6.44797C69.3823 6.98531 69.313 7.54864 69.313 8.13797C69.313 8.74464 69.3823 9.31664 69.521 9.85397C69.677 10.374 69.9023 10.8333 70.197 11.232C70.4916 11.6306 70.8556 11.9513 71.289 12.194C71.7223 12.4193 72.2336 12.532 72.823 12.532C73.395 12.532 73.8976 12.4193 74.331 12.194C74.7816 11.9513 75.1543 11.6306 75.449 11.232C75.7436 10.8333 75.969 10.374 76.125 9.85397C76.281 9.31664 76.359 8.74464 76.359 8.13797ZM102.193 13.182L102.635 15.47C101.543 15.834 100.321 16.12 98.9688 16.328C97.6341 16.5186 96.4035 16.614 95.2768 16.614H92.4948C91.5068 16.614 90.7355 16.3626 90.1808 15.86C89.6435 15.34 89.3748 14.586 89.3748 13.598V1.14397H100.425V3.58797H92.3388V7.30597H99.2288V9.74997H92.3388V13.312C92.3388 13.5373 92.4081 13.7366 92.5468 13.91C92.6855 14.0833 92.8848 14.17 93.1448 14.17H95.1468C95.6321 14.17 96.1695 14.1526 96.7588 14.118C97.3481 14.0833 97.9548 14.0226 98.5788 13.936C99.2028 13.8493 99.8181 13.7453 100.425 13.624C101.049 13.5026 101.638 13.3553 102.193 13.182ZM100.685 9.67197V7.20197H104.767V0.259973H107.757V20.982H104.767V9.67197H100.685ZM123.243 4.26397H126.129V7.40997C126.129 7.87797 126.085 8.33731 125.999 8.78797C125.912 9.23864 125.765 9.67197 125.557 10.088H128.573V12.48H122.229V16.302H130.783V18.694H110.737V16.302H119.161V12.48H112.661V10.088H115.703C115.512 9.72397 115.365 9.33397 115.261 8.91797C115.157 8.50197 115.105 8.00797 115.105 7.43597V4.26397H117.991V7.69597C117.991 8.11197 118.008 8.51931 118.043 8.91797C118.095 9.29931 118.216 9.68931 118.407 10.088H122.905C123.043 9.74131 123.13 9.35131 123.165 8.91797C123.217 8.46731 123.243 8.05997 123.243 7.69597V4.26397ZM128.443 3.19797H112.791V0.779974H128.443V3.19797ZM147.387 22.646H139.275C138.703 22.646 138.226 22.5073 137.845 22.23C137.463 21.97 137.273 21.4846 137.273 20.774V16.614H148.895V15.106H137.273V12.818H147.829C148.227 12.4886 148.505 12.038 148.661 11.466C148.834 10.8766 148.921 10.27 148.921 9.64597V6.18797H145.176V3.82197H148.921V-2.63453e-05H151.885V9.69797C151.885 10.426 151.729 11.0413 151.417 11.544C151.122 12.0466 150.775 12.48 150.377 12.844C151.001 12.896 151.417 13.0693 151.625 13.364C151.833 13.6413 151.911 14.066 151.859 14.638L151.443 18.018C151.408 18.278 151.33 18.4773 151.209 18.616C151.087 18.7373 150.862 18.798 150.533 18.798H140.289V20.358H147.361C148.019 20.358 148.721 20.3146 149.467 20.228C150.229 20.1586 150.966 20.02 151.677 19.812L152.223 21.97C151.356 22.23 150.515 22.4033 149.701 22.49C148.903 22.594 148.132 22.646 147.387 22.646ZM137.273 8.73597H138.911C140.211 8.73597 141.467 8.68397 142.681 8.57997C143.911 8.45864 145.099 8.23331 146.243 7.90397L146.711 10.088C146.243 10.2613 145.671 10.4173 144.995 10.556C144.336 10.6773 143.634 10.7813 142.889 10.868C142.143 10.9546 141.407 11.0153 140.679 11.05C139.951 11.0846 139.301 11.102 138.729 11.102H136.675C135.773 11.102 135.028 10.9026 134.439 10.504C133.867 10.1053 133.581 9.40331 133.581 8.39797V0.363974H144.527V2.72997H136.519V4.44597H143.617V6.78597H136.519V8.00797C136.519 8.28531 136.571 8.47597 136.675 8.57997C136.779 8.68397 136.978 8.73597 137.273 8.73597Z" fill="#575756"/>
</svg>
