<svg width="24" height="24" viewBox="0 0 24 24" fill="none" xmlns="http://www.w3.org/2000/svg">
<circle cx="12" cy="12" r="12" fill="#E6E8EA"/>
<path d="M18.834 5.33301C19.6623 5.33299 20.3338 6.00472 20.334 6.83301V17.167C20.3338 17.9953 19.6623 18.667 18.834 18.667H5.16797C4.33966 18.667 3.66817 17.9952 3.66797 17.167V6.83398C3.66797 6.00557 4.33955 5.334 5.16797 5.33398L18.834 5.33301ZM12.3867 14.6279C12.1562 14.7907 11.8477 14.7908 11.6172 14.6279L5.00098 9.95215V17.167C5.00118 17.2589 5.07605 17.333 5.16797 17.333H18.834C18.9259 17.333 19.0008 17.2589 19.001 17.167V9.9502L12.3867 14.6279ZM5.16797 6.66699C5.07592 6.66699 5.00098 6.74194 5.00098 6.83398V8.31934L12.002 13.2666L19.001 8.31738V6.83301C19.0008 6.74111 18.9259 6.66699 18.834 6.66699H5.16797Z" fill="#33363D"/>
</svg>
