<svg width="20" height="20" viewBox="0 0 20 20" fill="none" xmlns="http://www.w3.org/2000/svg">
<path fill-rule="evenodd" clip-rule="evenodd" d="M3.55419 10.3376C3.28051 10.5839 3.25832 11.0055 3.50462 11.2791L9.50437 17.9458C9.6308 18.0863 9.81091 18.1665 9.9999 18.1665C10.1889 18.1665 10.369 18.0863 10.4954 17.9458L16.4958 11.2792C16.7422 11.0055 16.72 10.584 16.4463 10.3377C16.1726 10.0913 15.7511 10.1135 15.5048 10.3872L9.99994 16.5033L4.4957 10.3872C4.2494 10.1135 3.82787 10.0913 3.55419 10.3376Z" fill="#33363D"/>
<path fill-rule="evenodd" clip-rule="evenodd" d="M3.55419 2.00439C3.28051 2.25069 3.25832 2.67221 3.50462 2.94589L9.50437 9.61256C9.6308 9.75304 9.81091 9.83325 9.9999 9.83326C10.1889 9.83326 10.369 9.75306 10.4954 9.61258L16.4958 2.94592C16.7422 2.67225 16.72 2.25073 16.4463 2.00441C16.1726 1.7581 15.7511 1.78027 15.5048 2.05393L9.99994 8.17003L4.4957 2.05396C4.2494 1.78028 3.82787 1.75809 3.55419 2.00439Z" fill="#33363D"/>
</svg>
