<svg width="776" height="160" viewBox="0 0 776 160" fill="none" xmlns="http://www.w3.org/2000/svg">
<circle cx="80" cy="80" r="80" fill="#E6E8EA"/>
<path d="M55.8521 58.708H53.9917V57.4043H50.9888V55.9102H53.9917V54.6357H51.1206C50.2954 56.7402 48.4106 58.1953 45.4663 59.001L44.7339 57.5215C46.228 57.1309 47.373 56.5864 48.1689 55.8882C48.9648 55.1851 49.4312 54.3623 49.5679 53.4199H45.4517V51.9258H51.604C51.604 52.375 51.5723 52.79 51.5088 53.1709H53.9917V51.0322H55.8521V58.708ZM51.4136 58.8691C52.312 58.8691 53.103 58.979 53.7866 59.1987C54.4702 59.4185 55 59.731 55.376 60.1362C55.7568 60.5415 55.9497 61.0176 55.9546 61.5645C55.9497 62.1162 55.7568 62.5972 55.376 63.0073C55 63.4175 54.4702 63.7324 53.7866 63.9521C53.103 64.1768 52.312 64.2891 51.4136 64.2891C50.5054 64.2891 49.707 64.1768 49.0186 63.9521C48.3301 63.7324 47.7954 63.4175 47.4146 63.0073C47.0386 62.5972 46.853 62.1162 46.8579 61.5645C46.853 61.0176 47.0386 60.5415 47.4146 60.1362C47.7954 59.731 48.3301 59.4185 49.0186 59.1987C49.707 58.979 50.5054 58.8691 51.4136 58.8691ZM51.4136 60.334C50.564 60.3242 49.9023 60.4268 49.4287 60.6416C48.9551 60.8516 48.7183 61.1592 48.7183 61.5645C48.7183 61.9697 48.9526 62.2798 49.4214 62.4946C49.895 62.7046 50.5591 62.8096 51.4136 62.8096C52.2534 62.8096 52.9077 62.7046 53.3765 62.4946C53.8452 62.2798 54.0796 61.9697 54.0796 61.5645C54.0796 61.1592 53.8452 60.8516 53.3765 60.6416C52.9077 60.4268 52.2534 60.3242 51.4136 60.334ZM68.7866 64.3477H66.897V51.0176H68.7866V64.3477ZM64.7876 52.4092C64.7876 53.835 64.5947 55.1313 64.209 56.2983C63.8281 57.4653 63.1836 58.5371 62.2754 59.5137C61.3672 60.4854 60.144 61.335 58.606 62.0625L57.6245 60.5684C58.7622 60.0312 59.6997 59.4331 60.437 58.7739C61.1792 58.1147 61.7456 57.3848 62.1362 56.584C62.5317 55.7783 62.7808 54.875 62.8833 53.874H58.3423V52.4092H64.7876ZM81.4136 58.459H77.5464V61.3008H82.7466V62.8242H70.5444V61.3008H75.686V58.459H71.98V51.9551H81.311V53.4492H73.855V56.9795H81.4136V58.459ZM88.8989 58.5615H84.0649V56.833H88.8989V58.5615ZM95.4321 54.0352C95.4321 54.8701 95.5591 55.6782 95.813 56.4595C96.0669 57.2358 96.4453 57.9268 96.9482 58.5322C97.4561 59.1328 98.0737 59.5869 98.8013 59.8945L97.7026 61.3887C96.9604 61.0518 96.3208 60.5708 95.7837 59.9458C95.2515 59.3159 94.8291 58.5762 94.5166 57.7266C94.2041 58.6543 93.7695 59.46 93.2129 60.1436C92.6611 60.8271 91.9897 61.3496 91.1987 61.7109L90.0708 60.1582C90.8228 59.8408 91.4575 59.3696 91.9751 58.7446C92.4927 58.1147 92.8809 57.3945 93.1396 56.584C93.4033 55.7734 93.5376 54.9238 93.5425 54.0352V52.043H95.4321V54.0352ZM101.409 64.377H99.519V51.0176H101.409V64.377ZM113.962 52.79C113.962 53.5469 113.945 54.2109 113.911 54.7822C113.882 55.3486 113.804 55.9785 113.677 56.6719H115.413V58.1514H110.315V60.9932H108.455V58.1514H103.21V56.6719H111.787C111.914 56.0322 111.997 55.439 112.036 54.8921C112.08 54.3452 112.102 53.7568 112.102 53.127H104.705V51.6328H113.962V52.79ZM114.167 64.1133H104.631V59.792H106.492V62.6191H114.167V64.1133ZM59.3896 76.3027C59.3848 76.8887 59.4946 77.4478 59.7192 77.98C59.9438 78.5073 60.2905 78.981 60.7593 79.4009C61.228 79.8159 61.8115 80.1357 62.5098 80.3604L61.5283 81.8252C60.8154 81.5859 60.2051 81.2393 59.6973 80.7852C59.1895 80.3262 58.7866 79.7842 58.4888 79.1592C58.186 79.8477 57.7661 80.4409 57.229 80.939C56.6919 81.437 56.0449 81.8154 55.2881 82.0742L54.248 80.5947C54.9756 80.3701 55.5835 80.0381 56.0718 79.5986C56.5601 79.1543 56.9214 78.6489 57.1558 78.0825C57.3901 77.5161 57.5098 76.918 57.5146 76.2881V74.8379H59.3896V76.3027ZM65.0439 77.8701H66.8457V79.4521H65.0439V83.7881H63.1689V74.0176H65.0439V77.8701ZM65.542 87.1133H56.3867V82.8213H58.291V85.6191H65.542V87.1133ZM77.9492 79.2324H79.9121V80.7705H77.9492V87.3477H76.1035V74.0176H77.9492V79.2324ZM75.1953 77.5039H67.3584V76.0098H70.376V74.2227H72.251V76.0098H75.1953V77.5039ZM71.3135 78.251C71.958 78.251 72.5366 78.3877 73.0493 78.6611C73.5669 78.9297 73.9722 79.3057 74.2651 79.7891C74.563 80.2725 74.7119 80.8193 74.7119 81.4297C74.7119 82.04 74.563 82.5869 74.2651 83.0703C73.9722 83.5537 73.5669 83.9321 73.0493 84.2056C72.5366 84.4741 71.958 84.6084 71.3135 84.6084C70.6641 84.6084 70.0806 84.4741 69.563 84.2056C69.0454 83.9321 68.6377 83.5537 68.3398 83.0703C68.0469 82.5869 67.9004 82.04 67.9004 81.4297C67.9004 80.8193 68.0469 80.2725 68.3398 79.7891C68.6377 79.3057 69.0454 78.9297 69.563 78.6611C70.0806 78.3877 70.6641 78.251 71.3135 78.251ZM71.3135 79.7598C71.001 79.7646 70.7202 79.8354 70.4712 79.9722C70.2271 80.1089 70.0342 80.3018 69.8926 80.5508C69.7559 80.7998 69.6875 81.0928 69.6875 81.4297C69.6875 81.7715 69.7559 82.0669 69.8926 82.3159C70.0342 82.5649 70.2271 82.7554 70.4712 82.8872C70.7202 83.0142 71.001 83.0752 71.3135 83.0703C71.626 83.0752 71.9043 83.0142 72.1484 82.8872C72.3926 82.7554 72.583 82.5649 72.7197 82.3159C72.8564 82.0669 72.9248 81.7715 72.9248 81.4297C72.9248 81.0928 72.8564 80.7998 72.7197 80.5508C72.583 80.3018 72.3926 80.1089 72.1484 79.9722C71.9043 79.8354 71.626 79.7646 71.3135 79.7598ZM91.6016 87.3477H89.7119V74.0176H91.6016V87.3477ZM87.6025 75.4092C87.6025 76.835 87.4097 78.1313 87.0239 79.2983C86.6431 80.4653 85.9985 81.5371 85.0903 82.5137C84.1821 83.4854 82.959 84.335 81.4209 85.0625L80.4395 83.5684C81.5771 83.0312 82.5146 82.4331 83.252 81.7739C83.9941 81.1147 84.5605 80.3848 84.9512 79.584C85.3467 78.7783 85.5957 77.875 85.6982 76.874H81.1572V75.4092H87.6025ZM100.83 75.8193C100.83 76.5029 100.813 77.145 100.779 77.7456C100.745 78.3413 100.659 79.0029 100.522 79.7305L98.6914 79.5547C98.877 78.5342 98.9795 77.5186 98.999 76.5078H93.9746V74.9844H100.83V75.8193ZM97.5195 80.6167C99.0332 80.5483 100.347 80.4336 101.46 80.2725L101.562 81.6201C100.337 81.8447 99.0601 81.9937 97.7319 82.0669C96.4038 82.1401 94.9414 82.1816 93.3447 82.1914L93.1836 80.6973C94.2432 80.6973 95.0684 80.6899 95.6592 80.6753V78.0605H97.5195V80.6167ZM104.097 78.0752H105.708V79.6426H104.097V83.9932H102.178V74.0176H104.097V78.0752ZM104.507 87.1133H95.1465V83.0996H97.0215V85.6191H104.507V87.1133ZM53.9917 105.323C54.9634 105.323 55.8057 105.423 56.5186 105.624C57.2314 105.819 57.7808 106.107 58.1665 106.488C58.5522 106.864 58.7476 107.315 58.7524 107.843C58.7476 108.36 58.5522 108.807 58.1665 109.183C57.7808 109.559 57.229 109.847 56.5112 110.047C55.7983 110.248 54.9585 110.348 53.9917 110.348C53.0347 110.348 52.1973 110.248 51.4795 110.047C50.7666 109.847 50.2148 109.559 49.8242 109.183C49.4385 108.807 49.2456 108.36 49.2456 107.843C49.2456 107.315 49.4385 106.864 49.8242 106.488C50.2148 106.107 50.7666 105.819 51.4795 105.624C52.1924 105.423 53.0298 105.323 53.9917 105.323ZM53.9917 106.715C53.064 106.715 52.3511 106.81 51.853 107C51.355 107.191 51.106 107.472 51.106 107.843C51.106 108.199 51.355 108.47 51.853 108.656C52.3511 108.836 53.064 108.927 53.9917 108.927C54.9194 108.927 55.6348 108.836 56.1377 108.656C56.6406 108.47 56.8921 108.199 56.8921 107.843C56.8921 107.472 56.6406 107.191 56.1377 107C55.6348 106.81 54.9194 106.715 53.9917 106.715ZM58.6792 98.7021C58.6792 99.4199 58.6572 100.042 58.6133 100.57C58.5742 101.097 58.4692 101.666 58.2983 102.276L56.4673 102.101C56.5991 101.554 56.687 101.053 56.731 100.599C56.7749 100.145 56.8018 99.6396 56.8115 99.083H49.3774V97.6182H58.6792V98.7021ZM60.1147 104.474H48.0151V102.965H52.5562V100.636H54.4019V102.965H60.1147V104.474ZM66.9556 105.323C67.9272 105.323 68.7695 105.423 69.4824 105.624C70.1953 105.819 70.7446 106.107 71.1304 106.488C71.5161 106.864 71.7114 107.315 71.7163 107.843C71.7114 108.36 71.5161 108.807 71.1304 109.183C70.7446 109.559 70.1929 109.847 69.4751 110.047C68.7622 110.248 67.9224 110.348 66.9556 110.348C65.9985 110.348 65.1611 110.248 64.4434 110.047C63.7305 109.847 63.1787 109.559 62.7881 109.183C62.4023 108.807 62.2095 108.36 62.2095 107.843C62.2095 107.315 62.4023 106.864 62.7881 106.488C63.1787 106.107 63.7305 105.819 64.4434 105.624C65.1562 105.423 65.9937 105.323 66.9556 105.323ZM66.9556 106.715C66.0278 106.715 65.3149 106.81 64.8169 107C64.3188 107.191 64.0698 107.472 64.0698 107.843C64.0698 108.199 64.3188 108.47 64.8169 108.656C65.3149 108.836 66.0278 108.927 66.9556 108.927C67.8833 108.927 68.5986 108.836 69.1016 108.656C69.6045 108.47 69.856 108.199 69.856 107.843C69.856 107.472 69.6045 107.191 69.1016 107C68.5986 106.81 67.8833 106.715 66.9556 106.715ZM71.6431 98.7021C71.6431 99.4199 71.6211 100.042 71.5771 100.57C71.5381 101.097 71.4331 101.666 71.2622 102.276L69.4312 102.101C69.563 101.554 69.6509 101.053 69.6948 100.599C69.7388 100.145 69.7656 99.6396 69.7754 99.083H62.3413V97.6182H71.6431V98.7021ZM73.0786 104.474H60.979V102.965H65.52V100.636H67.3657V102.965H73.0786V104.474ZM85.4712 110.348H83.6694V97.0176H85.4712V110.348ZM82.644 109.747H80.9009V103.404H78.5132V101.881H80.9009V97.252H82.644V109.747ZM79.4214 100.021H76.1548V105.829C76.9116 105.819 77.5757 105.79 78.147 105.741C78.7231 105.692 79.3091 105.606 79.9048 105.484L80.0513 107.008C79.3384 107.154 78.623 107.252 77.9053 107.301C77.1924 107.35 76.3062 107.374 75.2466 107.374H74.3237V98.5264H79.4214V100.021ZM98.0396 110.377H96.1499V97.0176H98.0396V110.377ZM90.8032 97.9551C91.4722 97.9551 92.0703 98.1504 92.5977 98.541C93.1299 98.9316 93.5474 99.4858 93.8501 100.204C94.1528 100.921 94.3042 101.754 94.3042 102.701C94.3042 103.658 94.1528 104.498 93.8501 105.221C93.5474 105.938 93.1299 106.493 92.5977 106.883C92.0703 107.269 91.4722 107.462 90.8032 107.462C90.1196 107.462 89.5093 107.269 88.9722 106.883C88.4351 106.493 88.0151 105.938 87.7124 105.221C87.4146 104.498 87.2681 103.658 87.2729 102.701C87.2681 101.754 87.4146 100.921 87.7124 100.204C88.0151 99.4858 88.4351 98.9316 88.9722 98.541C89.5093 98.1504 90.1196 97.9551 90.8032 97.9551ZM90.8032 99.6396C90.4565 99.6396 90.1514 99.7593 89.8877 99.9985C89.6289 100.233 89.4287 100.58 89.2871 101.039C89.1455 101.498 89.0747 102.052 89.0747 102.701C89.0747 103.355 89.1455 103.912 89.2871 104.371C89.4287 104.83 89.6289 105.177 89.8877 105.411C90.1514 105.646 90.4565 105.763 90.8032 105.763C91.145 105.763 91.4429 105.646 91.6968 105.411C91.9507 105.172 92.1484 104.823 92.29 104.364C92.4316 103.905 92.5024 103.351 92.5024 102.701C92.5024 102.057 92.4316 101.505 92.29 101.046C92.1484 100.582 91.9482 100.233 91.6895 99.9985C91.4355 99.7593 91.1401 99.6396 90.8032 99.6396ZM111.091 110.377H109.246V103.229H106.902V101.72H109.246V97.0176H111.091V110.377ZM106.682 99.6396H102.317V101.852H106.199V103.316H102.317V105.836C103.323 105.826 104.209 105.799 104.976 105.755C105.742 105.707 106.516 105.621 107.297 105.499L107.488 106.993C106.56 107.135 105.637 107.232 104.719 107.286C103.801 107.335 102.732 107.359 101.511 107.359H100.457V98.1309H106.682V99.6396Z" fill="#464C53"/>
<path d="M179.223 74.8936H182.311V73.1006H184.436V79.6914H177.114V73.1006H179.223V74.8936ZM182.311 78.0312V76.4873H179.223V78.0312H182.311ZM188.652 75.3584H190.694V77.0684H188.652V80.1064H186.527V72.4199H188.652V75.3584ZM188.652 84.7715H180.733V85.751H189.084V87.4277H178.658V83.2607H186.544V82.3145H178.625V80.6709H188.652V84.7715ZM203.544 74.0303C203.544 74.6943 203.527 75.3003 203.494 75.8481C203.466 76.396 203.392 76.9909 203.27 77.6328H205.188V79.2764H199.294V80.7041H203.478V84.7549H195.044V85.7842H203.893V87.4111H192.936V83.3105H201.386V82.3477H192.919V80.7041H197.186V79.2764H191.358V77.6328H201.137C201.247 77.0905 201.322 76.5897 201.361 76.1304C201.4 75.6655 201.424 75.1758 201.436 74.6611H193.052V73.001H203.544V74.0303ZM207.827 89.5029H206.067L206.897 84.7715H209.255L207.827 89.5029ZM223.864 73.5986C223.864 74.2074 224.069 74.8078 224.479 75.3999C224.888 75.9865 225.491 76.4956 226.288 76.9272C227.085 77.3589 228.037 77.6439 229.144 77.7822L228.313 79.4922C227.019 79.304 225.892 78.9277 224.935 78.3633C223.983 77.7933 223.253 77.0905 222.744 76.2549C222.24 77.0905 221.515 77.7933 220.569 78.3633C219.623 78.9277 218.507 79.304 217.224 79.4922L216.377 77.7822C217.473 77.6439 218.419 77.3589 219.216 76.9272C220.013 76.4956 220.616 75.9865 221.025 75.3999C221.435 74.8078 221.64 74.2074 221.64 73.5986V72.8682H223.864V73.5986ZM229.625 82.3643H223.748V87.5273H221.656V82.3643H215.846V80.6377H229.625V82.3643ZM239.47 74.9434H236.44C236.479 75.4912 236.636 76.0197 236.913 76.5288C237.19 77.0324 237.591 77.4806 238.117 77.8735C238.648 78.2664 239.293 78.568 240.051 78.7783L238.988 80.4219C238.147 80.1839 237.419 79.8187 236.805 79.3262C236.196 78.8337 235.718 78.2498 235.369 77.5747C235.015 78.3107 234.525 78.9471 233.9 79.4839C233.275 80.0207 232.525 80.4219 231.65 80.6875L230.588 79.0273C231.363 78.8005 232.018 78.4795 232.555 78.0645C233.097 77.6439 233.51 77.1652 233.792 76.6284C234.074 76.0916 234.232 75.5299 234.265 74.9434H231.169V73.25H239.47V74.9434ZM243.188 80.6211H241.063V72.4199H243.188V80.6211ZM235.17 82.6631H241.08V81.252H243.188V87.3613H233.078V81.252H235.17V82.6631ZM241.08 85.668V84.3066H235.17V85.668H241.08Z" fill="#464C53"/>
<g filter="url(#filter0_dd_784_11599)">
<circle cx="275" cy="80" r="22" fill="white"/>
</g>
<path d="M271.926 79.8609L267 66L286.809 79.8609L267 93.7219L271.926 79.8609Z" fill="#256EF4"/>
<circle cx="393" cy="80" r="80" fill="#256EF4"/>
<path d="M352.775 80.708H350.915V79.4043H347.912V77.9102H350.915V76.6357H348.044C347.219 78.7402 345.334 80.1953 342.39 81.001L341.657 79.5215C343.151 79.1309 344.296 78.5864 345.092 77.8882C345.888 77.1851 346.354 76.3623 346.491 75.4199H342.375V73.9258H348.527C348.527 74.375 348.496 74.79 348.432 75.1709H350.915V73.0322H352.775V80.708ZM348.337 80.8691C349.235 80.8691 350.026 80.979 350.71 81.1987C351.394 81.4185 351.923 81.731 352.299 82.1362C352.68 82.5415 352.873 83.0176 352.878 83.5645C352.873 84.1162 352.68 84.5972 352.299 85.0073C351.923 85.4175 351.394 85.7324 350.71 85.9521C350.026 86.1768 349.235 86.2891 348.337 86.2891C347.429 86.2891 346.63 86.1768 345.942 85.9521C345.253 85.7324 344.719 85.4175 344.338 85.0073C343.962 84.5972 343.776 84.1162 343.781 83.5645C343.776 83.0176 343.962 82.5415 344.338 82.1362C344.719 81.731 345.253 81.4185 345.942 81.1987C346.63 80.979 347.429 80.8691 348.337 80.8691ZM348.337 82.334C347.487 82.3242 346.826 82.4268 346.352 82.6416C345.878 82.8516 345.642 83.1592 345.642 83.5645C345.642 83.9697 345.876 84.2798 346.345 84.4946C346.818 84.7046 347.482 84.8096 348.337 84.8096C349.177 84.8096 349.831 84.7046 350.3 84.4946C350.769 84.2798 351.003 83.9697 351.003 83.5645C351.003 83.1592 350.769 82.8516 350.3 82.6416C349.831 82.4268 349.177 82.3242 348.337 82.334ZM365.71 86.3477H363.82V73.0176H365.71V86.3477ZM361.711 74.4092C361.711 75.835 361.518 77.1313 361.132 78.2983C360.751 79.4653 360.107 80.5371 359.199 81.5137C358.291 82.4854 357.067 83.335 355.529 84.0625L354.548 82.5684C355.686 82.0312 356.623 81.4331 357.36 80.7739C358.103 80.1147 358.669 79.3848 359.06 78.584C359.455 77.7783 359.704 76.875 359.807 75.874H355.266V74.4092H361.711ZM379.025 86.3477H377.224V73.0176H379.025V86.3477ZM376.198 85.7471H374.455V79.4043H372.067V77.8809H374.455V73.252H376.198V85.7471ZM372.976 76.0205H369.709V81.8286C370.466 81.8188 371.13 81.7896 371.701 81.7407C372.277 81.6919 372.863 81.6064 373.459 81.4844L373.605 83.0078C372.893 83.1543 372.177 83.252 371.459 83.3008C370.747 83.3496 369.86 83.374 368.801 83.374H367.878V74.5264H372.976V76.0205ZM391.594 86.377H389.704V73.0176H391.594V86.377ZM384.357 73.9551C385.026 73.9551 385.625 74.1504 386.152 74.541C386.684 74.9316 387.102 75.4858 387.404 76.2036C387.707 76.9214 387.858 77.7539 387.858 78.7012C387.858 79.6582 387.707 80.498 387.404 81.2207C387.102 81.9385 386.684 82.4927 386.152 82.8833C385.625 83.269 385.026 83.4619 384.357 83.4619C383.674 83.4619 383.063 83.269 382.526 82.8833C381.989 82.4927 381.569 81.9385 381.267 81.2207C380.969 80.498 380.822 79.6582 380.827 78.7012C380.822 77.7539 380.969 76.9214 381.267 76.2036C381.569 75.4858 381.989 74.9316 382.526 74.541C383.063 74.1504 383.674 73.9551 384.357 73.9551ZM384.357 75.6396C384.011 75.6396 383.706 75.7593 383.442 75.9985C383.183 76.2329 382.983 76.5796 382.841 77.0386C382.7 77.4976 382.629 78.0518 382.629 78.7012C382.629 79.3555 382.7 79.9121 382.841 80.3711C382.983 80.8301 383.183 81.1768 383.442 81.4111C383.706 81.6455 384.011 81.7627 384.357 81.7627C384.699 81.7627 384.997 81.6455 385.251 81.4111C385.505 81.1719 385.703 80.8228 385.844 80.3638C385.986 79.9048 386.057 79.3506 386.057 78.7012C386.057 78.0566 385.986 77.5049 385.844 77.0459C385.703 76.582 385.502 76.2329 385.244 75.9985C384.99 75.7593 384.694 75.6396 384.357 75.6396ZM404.646 86.377H402.8V79.2285H400.456V77.7197H402.8V73.0176H404.646V86.377ZM400.236 75.6396H395.871V77.8516H399.753V79.3164H395.871V81.8359C396.877 81.8262 397.763 81.7993 398.53 81.7554C399.296 81.7065 400.07 81.6211 400.852 81.499L401.042 82.9932C400.114 83.1348 399.191 83.2324 398.273 83.2861C397.355 83.335 396.286 83.3594 395.065 83.3594H394.011V74.1309H400.236V75.6396ZM417.434 74.7754H415.69V76.5332H417.346V77.9248H407.517V76.5332H409.157V74.7754H407.429V73.3838H417.434V74.7754ZM418.518 80.0928H406.359V78.6279H418.518V80.0928ZM417.038 84.1504H409.611V84.8828H417.39V86.2598H407.78V82.876H415.192V82.2021H407.766V80.8545H417.038V84.1504ZM413.815 76.5332V74.7754H411.032V76.5332H413.815ZM430.778 81.9824H429.006V77.7637H427.849V80.8838H426.105V73.2666H427.849V76.2549H429.006V73.0322H430.778V81.9824ZM424.934 77.998H421.667V79.3091C422.424 79.2993 423.093 79.27 423.674 79.2212C424.26 79.1724 424.86 79.0869 425.476 78.9648L425.637 80.4297C424.919 80.5713 424.208 80.6665 423.505 80.7153C422.802 80.7593 421.896 80.7812 420.788 80.7812H419.865V76.6504H423.132V75.4346H419.851V73.9404H424.934V77.998ZM427.087 81.6309C427.082 82.1143 427.243 82.5806 427.57 83.0298C427.897 83.4741 428.386 83.8599 429.035 84.187C429.689 84.5093 430.476 84.7266 431.394 84.8389L430.646 86.2891C429.602 86.1426 428.696 85.8569 427.929 85.4321C427.163 85.0073 426.572 84.4775 426.157 83.8428C425.737 84.4775 425.144 85.0073 424.377 85.4321C423.61 85.8569 422.707 86.1426 421.667 86.2891L420.92 84.8389C421.833 84.7266 422.612 84.5093 423.256 84.187C423.906 83.8599 424.394 83.4741 424.721 83.0298C425.048 82.5806 425.212 82.1143 425.212 81.6309V81.3965H427.087V81.6309ZM444.445 80.957H432.287V79.4775H437.414V78.4082H433.444V76.9141H435.085V74.8779H433.356V73.3838H443.361V74.8779H441.618V76.9141H443.273V78.4082H439.289V79.4775H444.445V80.957ZM442.995 86.2012H433.693V81.8652H442.995V86.2012ZM435.539 84.707H441.164V83.3301H435.539V84.707ZM439.743 76.9141V74.8779H436.96V76.9141H439.743Z" fill="white"/>
<path d="M503.343 81.8662H489.53V80.2061H495.374V79.2764H491.257V72.7852H501.732V74.4121H493.382V75.2588H501.384V76.7861H493.382V77.6494H501.865V79.2764H497.499V80.2061H503.343V81.8662ZM496.437 82.5635C497.543 82.5579 498.49 82.652 499.275 82.8457C500.061 83.0339 500.659 83.3133 501.068 83.6841C501.483 84.0549 501.694 84.5059 501.699 85.0371C501.694 85.8451 501.234 86.4621 500.321 86.8882C499.408 87.3143 498.113 87.5273 496.437 87.5273C494.732 87.5273 493.423 87.3143 492.51 86.8882C491.597 86.4621 491.141 85.8451 491.141 85.0371C491.141 84.5059 491.345 84.0549 491.755 83.6841C492.17 83.3133 492.773 83.0339 493.564 82.8457C494.356 82.652 495.313 82.5579 496.437 82.5635ZM496.437 84.124C495.346 84.124 494.544 84.1987 494.029 84.3481C493.515 84.492 493.26 84.7217 493.266 85.0371C493.26 85.3581 493.512 85.5933 494.021 85.7427C494.536 85.8921 495.341 85.9668 496.437 85.9668C497.505 85.9668 498.293 85.8921 498.802 85.7427C499.311 85.5933 499.569 85.3581 499.574 85.0371C499.569 84.7217 499.311 84.492 498.802 84.3481C498.293 84.1987 497.505 84.124 496.437 84.124ZM516.242 76.0557H518.284V77.8154H516.242V81.2686H514.117V72.4199H516.242V76.0557ZM508.456 82.9951H514.117V81.8496H516.242V87.3613H506.348V81.8496H508.456V82.9951ZM514.117 85.7012V84.6221H508.456V85.7012H514.117ZM513.221 75.4082H504.256V73.748H507.692V72.3203H509.801V73.748H513.221V75.4082ZM508.738 75.8398C509.463 75.8398 510.108 75.9505 510.672 76.1719C511.237 76.3932 511.674 76.7059 511.984 77.1099C512.299 77.5138 512.457 77.9814 512.457 78.5127C512.457 79.0439 512.299 79.5116 511.984 79.9155C511.674 80.3195 511.237 80.6322 510.672 80.8535C510.108 81.0749 509.463 81.1855 508.738 81.1855C508.002 81.1855 507.349 81.0749 506.779 80.8535C506.215 80.6322 505.775 80.3195 505.459 79.9155C505.144 79.5116 504.986 79.0439 504.986 78.5127C504.986 77.9814 505.144 77.5138 505.459 77.1099C505.775 76.7059 506.215 76.3932 506.779 76.1719C507.349 75.9505 508.002 75.8398 508.738 75.8398ZM508.738 77.4004C508.224 77.3893 507.814 77.4834 507.51 77.6826C507.205 77.8818 507.056 78.1585 507.062 78.5127C507.056 78.8724 507.205 79.1519 507.51 79.3511C507.814 79.5448 508.224 79.6416 508.738 79.6416C509.258 79.6416 509.674 79.5448 509.983 79.3511C510.293 79.1519 510.448 78.8724 510.448 78.5127C510.448 78.1585 510.291 77.8818 509.975 77.6826C509.665 77.4834 509.253 77.3893 508.738 77.4004ZM532.014 87.5273H530.005V72.4199H532.014V87.5273ZM528.926 86.8301H526.934V79.3096H524.941V77.5996H526.934V72.6689H528.926V86.8301ZM523.729 76.4707C523.729 77.8431 523.967 79.091 524.443 80.2144C524.925 81.3322 525.683 82.1872 526.718 82.7793L525.473 84.3398C524.82 83.9525 524.264 83.4378 523.804 82.7959C523.35 82.154 522.993 81.4124 522.733 80.5713C522.462 81.4899 522.091 82.3006 521.621 83.0034C521.151 83.7062 520.581 84.2624 519.911 84.6719L518.633 83.1113C519.341 82.6797 519.922 82.1125 520.376 81.4097C520.835 80.7013 521.167 79.9266 521.372 79.0854C521.582 78.2443 521.688 77.3727 521.688 76.4707V75.6572H519.214V73.9639H526.021V75.6572H523.729V76.4707ZM540.447 81.833C541.549 81.833 542.503 81.9465 543.311 82.1733C544.119 82.3947 544.742 82.7212 545.179 83.1528C545.616 83.5789 545.837 84.0908 545.843 84.6885C545.837 85.2751 545.616 85.7814 545.179 86.2075C544.742 86.6336 544.116 86.9601 543.303 87.187C542.495 87.4139 541.543 87.5273 540.447 87.5273C539.363 87.5273 538.414 87.4139 537.6 87.187C536.792 86.9601 536.167 86.6336 535.724 86.2075C535.287 85.7814 535.068 85.2751 535.068 84.6885C535.068 84.0908 535.287 83.5789 535.724 83.1528C536.167 82.7212 536.792 82.3947 537.6 82.1733C538.408 81.9465 539.357 81.833 540.447 81.833ZM540.447 83.4102C539.396 83.4102 538.588 83.5181 538.023 83.7339C537.459 83.9497 537.177 84.2679 537.177 84.6885C537.177 85.0924 537.459 85.3996 538.023 85.6099C538.588 85.8146 539.396 85.917 540.447 85.917C541.499 85.917 542.309 85.8146 542.879 85.6099C543.449 85.3996 543.734 85.0924 543.734 84.6885C543.734 84.2679 543.449 83.9497 542.879 83.7339C542.309 83.5181 541.499 83.4102 540.447 83.4102ZM545.76 74.3291C545.76 75.1426 545.735 75.8481 545.685 76.4458C545.641 77.0435 545.522 77.6882 545.328 78.3799L543.253 78.1807C543.402 77.5609 543.502 76.9937 543.552 76.479C543.602 75.9644 543.632 75.3916 543.643 74.7607H535.218V73.1006H545.76V74.3291ZM547.387 80.8701H533.674V79.1602H538.82V76.5205H540.912V79.1602H547.387V80.8701Z" fill="#464C53"/>
<g filter="url(#filter1_dd_784_11599)">
<circle cx="578" cy="80" r="22" fill="white"/>
</g>
<path d="M574.926 79.8609L570 66L589.809 79.8609L570 93.7219L574.926 79.8609Z" fill="#256EF4"/>
<circle cx="696" cy="80" r="80" fill="#E6E8EA"/>
<path d="M687.819 58.459H683.952V61.3008H689.152V62.8242H676.95V61.3008H682.091V58.459H678.385V51.9551H687.716V53.4492H680.26V56.9795H687.819V58.459ZM697.106 58.5176H690.587V52.0869H697.106V58.5176ZM692.433 57.0381H695.246V53.5664H692.433V57.0381ZM701.076 60.5098H699.201V51.0322H701.076V60.5098ZM701.427 64.0547H692.14V59.6309H694.03V62.5459H701.427V64.0547ZM707.199 51.9111C707.892 51.9062 708.52 52.0454 709.081 52.3286C709.647 52.6069 710.089 52.9951 710.407 53.4932C710.729 53.9912 710.89 54.5527 710.89 55.1777C710.89 55.8076 710.729 56.3716 710.407 56.8696C710.089 57.3677 709.65 57.7583 709.088 58.0415C708.527 58.3198 707.897 58.459 707.199 58.459C706.5 58.459 705.868 58.3198 705.302 58.0415C704.74 57.7583 704.298 57.3677 703.976 56.8696C703.654 56.3716 703.493 55.8076 703.493 55.1777C703.493 54.5527 703.654 53.9912 703.976 53.4932C704.298 52.9951 704.743 52.6069 705.309 52.3286C705.875 52.0454 706.505 51.9062 707.199 51.9111ZM707.199 53.5225C706.847 53.5225 706.53 53.5884 706.247 53.7202C705.963 53.8521 705.741 54.0449 705.58 54.2988C705.424 54.5479 705.348 54.8408 705.353 55.1777C705.348 55.5195 705.424 55.8149 705.58 56.064C705.741 56.313 705.961 56.5034 706.239 56.6353C706.522 56.7671 706.842 56.833 707.199 56.833C707.555 56.833 707.873 56.7671 708.151 56.6353C708.434 56.5034 708.656 56.313 708.817 56.064C708.983 55.8149 709.069 55.5195 709.074 55.1777C709.069 54.8359 708.986 54.5405 708.825 54.2915C708.664 54.0425 708.441 53.8521 708.158 53.7202C707.875 53.5884 707.555 53.5225 707.199 53.5225ZM714.083 64.377H712.223V51.0176H714.083V64.377ZM703.668 60.1289C706.798 60.1289 709.396 59.9873 711.461 59.7041L711.608 61.0518C710.299 61.3057 708.964 61.4692 707.602 61.5425C706.239 61.6157 704.757 61.6523 703.156 61.6523L702.936 60.1289H703.668ZM673.383 87.3477H671.581V74.0176H673.383V87.3477ZM670.556 86.7471H668.812V80.4043H666.425V78.8809H668.812V74.252H670.556V86.7471ZM667.333 77.0205H664.066V82.8286C664.823 82.8188 665.487 82.7896 666.059 82.7407C666.635 82.6919 667.221 82.6064 667.816 82.4844L667.963 84.0078C667.25 84.1543 666.535 84.252 665.817 84.3008C665.104 84.3496 664.218 84.374 663.158 84.374H662.235V75.5264H667.333V77.0205ZM685.951 87.377H684.062V74.0176H685.951V87.377ZM678.715 74.9551C679.384 74.9551 679.982 75.1504 680.509 75.541C681.042 75.9316 681.459 76.4858 681.762 77.2036C682.064 77.9214 682.216 78.7539 682.216 79.7012C682.216 80.6582 682.064 81.498 681.762 82.2207C681.459 82.9385 681.042 83.4927 680.509 83.8833C679.982 84.269 679.384 84.4619 678.715 84.4619C678.031 84.4619 677.421 84.269 676.884 83.8833C676.347 83.4927 675.927 82.9385 675.624 82.2207C675.326 81.498 675.18 80.6582 675.185 79.7012C675.18 78.7539 675.326 77.9214 675.624 77.2036C675.927 76.4858 676.347 75.9316 676.884 75.541C677.421 75.1504 678.031 74.9551 678.715 74.9551ZM678.715 76.6396C678.368 76.6396 678.063 76.7593 677.799 76.9985C677.541 77.2329 677.34 77.5796 677.199 78.0386C677.057 78.4976 676.986 79.0518 676.986 79.7012C676.986 80.3555 677.057 80.9121 677.199 81.3711C677.34 81.8301 677.541 82.1768 677.799 82.4111C678.063 82.6455 678.368 82.7627 678.715 82.7627C679.057 82.7627 679.354 82.6455 679.608 82.4111C679.862 82.1719 680.06 81.8228 680.202 81.3638C680.343 80.9048 680.414 80.3506 680.414 79.7012C680.414 79.0566 680.343 78.5049 680.202 78.0459C680.06 77.582 679.86 77.2329 679.601 76.9985C679.347 76.7593 679.052 76.6396 678.715 76.6396ZM699.003 87.377H697.157V80.2285H694.813V78.7197H697.157V74.0176H699.003V87.377ZM694.594 76.6396H690.229V78.8516H694.11V80.3164H690.229V82.8359C691.234 82.8262 692.121 82.7993 692.887 82.7554C693.654 82.7065 694.428 82.6211 695.209 82.499L695.399 83.9932C694.472 84.1348 693.549 84.2324 692.631 84.2861C691.713 84.335 690.644 84.3594 689.423 84.3594H688.368V75.1309H694.594V76.6396ZM716.2 87.377H714.311V74.0176H716.2V87.377ZM708.964 74.9551C709.633 74.9551 710.231 75.1504 710.758 75.541C711.291 75.9316 711.708 76.4858 712.011 77.2036C712.313 77.9214 712.465 78.7539 712.465 79.7012C712.465 80.6582 712.313 81.498 712.011 82.2207C711.708 82.9385 711.291 83.4927 710.758 83.8833C710.231 84.269 709.633 84.4619 708.964 84.4619C708.28 84.4619 707.67 84.269 707.133 83.8833C706.596 83.4927 706.176 82.9385 705.873 82.2207C705.575 81.498 705.429 80.6582 705.434 79.7012C705.429 78.7539 705.575 77.9214 705.873 77.2036C706.176 76.4858 706.596 75.9316 707.133 75.541C707.67 75.1504 708.28 74.9551 708.964 74.9551ZM708.964 76.6396C708.617 76.6396 708.312 76.7593 708.048 76.9985C707.79 77.2329 707.589 77.5796 707.448 78.0386C707.306 78.4976 707.235 79.0518 707.235 79.7012C707.235 80.3555 707.306 80.9121 707.448 81.3711C707.589 81.8301 707.79 82.1768 708.048 82.4111C708.312 82.6455 708.617 82.7627 708.964 82.7627C709.306 82.7627 709.604 82.6455 709.857 82.4111C710.111 82.1719 710.309 81.8228 710.451 81.3638C710.592 80.9048 710.663 80.3506 710.663 79.7012C710.663 79.0566 710.592 78.5049 710.451 78.0459C710.309 77.582 710.109 77.2329 709.85 76.9985C709.596 76.7593 709.301 76.6396 708.964 76.6396ZM730.16 81.8252H718.002V80.3311H720.741V78.7344C720.248 78.5146 719.87 78.2412 719.606 77.9141C719.347 77.5869 719.218 77.2109 719.218 76.7861C719.218 76.2539 719.416 75.7949 719.811 75.4092C720.207 75.0186 720.771 74.7207 721.503 74.5156C722.235 74.3105 723.095 74.208 724.081 74.208C725.058 74.208 725.91 74.3105 726.637 74.5156C727.365 74.7207 727.926 75.0186 728.322 75.4092C728.722 75.7949 728.925 76.2539 728.93 76.7861C728.925 77.2109 728.788 77.5918 728.52 77.9287C728.251 78.2607 727.865 78.5342 727.362 78.749V80.3311H730.16V81.8252ZM724.066 82.5283C725.028 82.5283 725.856 82.6211 726.549 82.8066C727.243 82.9922 727.775 83.2632 728.146 83.6196C728.517 83.9761 728.705 84.4082 728.71 84.916C728.705 85.4336 728.517 85.873 728.146 86.2344C727.775 86.5957 727.243 86.8691 726.549 87.0547C725.856 87.2402 725.028 87.333 724.066 87.333C723.09 87.333 722.252 87.2402 721.554 87.0547C720.856 86.8691 720.321 86.5957 719.95 86.2344C719.579 85.873 719.394 85.4336 719.394 84.916C719.394 84.4082 719.579 83.9761 719.95 83.6196C720.321 83.2632 720.856 82.9922 721.554 82.8066C722.252 82.6211 723.09 82.5283 724.066 82.5283ZM724.066 83.9346C722.206 83.9346 721.283 84.2617 721.298 84.916C721.283 85.5996 722.206 85.9414 724.066 85.9414C725.897 85.9414 726.82 85.5996 726.835 84.916C726.82 84.2617 725.897 83.9346 724.066 83.9346ZM724.081 75.6436C723.134 75.6436 722.409 75.7412 721.906 75.9365C721.408 76.1318 721.161 76.415 721.166 76.7861C721.161 77.1475 721.408 77.4209 721.906 77.6064C722.404 77.792 723.129 77.8848 724.081 77.8848C725.023 77.8848 725.744 77.792 726.242 77.6064C726.745 77.4209 726.996 77.1475 726.996 76.7861C726.996 76.415 726.745 76.1318 726.242 75.9365C725.739 75.7412 725.019 75.6436 724.081 75.6436ZM725.502 80.3311V79.2178C725.082 79.2666 724.608 79.291 724.081 79.291C723.524 79.291 723.041 79.2642 722.631 79.2104V80.3311H725.502ZM679.542 106.832H677.682V103.551H675.983V102.013H677.682V100.855H675.983V99.3613H677.682V97.0176H679.542V106.832ZM675.749 99.4639H674.65V103.514C675.016 103.485 675.451 103.443 675.954 103.39L676.027 104.752C674.914 104.938 673.717 105.062 672.438 105.125C671.159 105.189 669.845 105.221 668.498 105.221L668.307 103.697L669.728 103.683V99.4639H668.644V97.9697H675.749V99.4639ZM679.865 110.113H670.68V106.1H672.555V108.619H679.865V110.113ZM672.863 103.609V99.4639H671.53V103.653L672.863 103.609ZM685.592 97.9111C686.286 97.9062 686.913 98.0454 687.475 98.3286C688.041 98.6069 688.483 98.9951 688.8 99.4932C689.123 99.9912 689.284 100.553 689.284 101.178C689.284 101.808 689.123 102.372 688.8 102.87C688.483 103.368 688.043 103.758 687.482 104.042C686.92 104.32 686.291 104.459 685.592 104.459C684.894 104.459 684.262 104.32 683.695 104.042C683.134 103.758 682.692 103.368 682.37 102.87C682.047 102.372 681.886 101.808 681.886 101.178C681.886 100.553 682.047 99.9912 682.37 99.4932C682.692 98.9951 683.136 98.6069 683.703 98.3286C684.269 98.0454 684.899 97.9062 685.592 97.9111ZM685.592 99.5225C685.241 99.5225 684.923 99.5884 684.64 99.7202C684.357 99.8521 684.135 100.045 683.974 100.299C683.817 100.548 683.742 100.841 683.747 101.178C683.742 101.52 683.817 101.815 683.974 102.064C684.135 102.313 684.354 102.503 684.633 102.635C684.916 102.767 685.236 102.833 685.592 102.833C685.949 102.833 686.266 102.767 686.544 102.635C686.828 102.503 687.05 102.313 687.211 102.064C687.377 101.815 687.462 101.52 687.467 101.178C687.462 100.836 687.379 100.541 687.218 100.292C687.057 100.042 686.835 99.8521 686.552 99.7202C686.269 99.5884 685.949 99.5225 685.592 99.5225ZM692.477 110.377H690.617V97.0176H692.477V110.377ZM682.062 106.129C685.192 106.129 687.79 105.987 689.855 105.704L690.001 107.052C688.693 107.306 687.357 107.469 685.995 107.542C684.633 107.616 683.151 107.652 681.549 107.652L681.33 106.129H682.062ZM710.861 100.475H709.132V101.837H710.861V103.36H709.132V105.484H707.257V97.0176H709.132V98.9658H710.861V100.475ZM704.782 105.602C705.69 105.602 706.483 105.697 707.162 105.887C707.841 106.078 708.363 106.354 708.729 106.715C709.096 107.071 709.279 107.496 709.279 107.989C709.279 108.473 709.093 108.89 708.722 109.242C708.356 109.598 707.833 109.872 707.155 110.062C706.481 110.252 705.69 110.348 704.782 110.348C703.854 110.348 703.051 110.252 702.372 110.062C701.693 109.872 701.171 109.598 700.805 109.242C700.443 108.89 700.265 108.473 700.27 107.989C700.265 107.496 700.443 107.071 700.805 106.715C701.171 106.354 701.693 106.078 702.372 105.887C703.051 105.697 703.854 105.602 704.782 105.602ZM704.782 107.022C702.99 107.022 702.101 107.345 702.116 107.989C702.111 108.302 702.335 108.541 702.79 108.707C703.244 108.873 703.908 108.956 704.782 108.956C705.631 108.956 706.281 108.873 706.73 108.707C707.179 108.541 707.404 108.302 707.404 107.989C707.404 107.345 706.53 107.022 704.782 107.022ZM706.466 99.7422H698.556V98.292H701.588V96.9443H703.449V98.292H706.466V99.7422ZM702.511 100.196C703.151 100.196 703.717 100.299 704.21 100.504C704.708 100.704 705.097 100.987 705.375 101.354C705.653 101.715 705.792 102.13 705.792 102.599C705.792 103.072 705.653 103.49 705.375 103.851C705.102 104.212 704.716 104.493 704.218 104.693C703.72 104.889 703.151 104.986 702.511 104.986C701.862 104.986 701.286 104.889 700.783 104.693C700.285 104.493 699.896 104.212 699.618 103.851C699.34 103.49 699.201 103.072 699.201 102.599C699.201 102.13 699.34 101.715 699.618 101.354C699.896 100.987 700.287 100.704 700.79 100.504C701.293 100.299 701.867 100.196 702.511 100.196ZM702.511 101.559C702.052 101.559 701.688 101.649 701.42 101.83C701.156 102.01 701.027 102.267 701.032 102.599C701.027 102.921 701.159 103.17 701.427 103.346C701.696 103.521 702.057 103.604 702.511 103.595C702.97 103.604 703.336 103.521 703.61 103.346C703.883 103.17 704.02 102.921 704.02 102.599C704.02 102.267 703.883 102.01 703.61 101.83C703.336 101.649 702.97 101.559 702.511 101.559ZM716.383 99.1123C716.383 99.6641 716.493 100.191 716.713 100.694C716.933 101.192 717.27 101.639 717.724 102.035C718.183 102.425 718.751 102.726 719.43 102.936L718.434 104.386C717.741 104.156 717.145 103.824 716.647 103.39C716.149 102.955 715.753 102.44 715.46 101.844C715.163 102.533 714.75 103.128 714.223 103.631C713.7 104.129 713.068 104.503 712.326 104.752L711.315 103.287C712.033 103.048 712.628 102.706 713.102 102.262C713.576 101.817 713.927 101.312 714.157 100.746C714.386 100.174 714.503 99.5713 714.508 98.9365V97.7207H716.383V99.1123ZM722.096 100.138H723.898V101.69H722.096V104.928H720.221V97.0176H722.096V100.138ZM717.731 105.191C718.649 105.191 719.445 105.294 720.119 105.499C720.792 105.704 721.312 106 721.679 106.385C722.045 106.771 722.228 107.232 722.228 107.77C722.228 108.312 722.045 108.775 721.679 109.161C721.317 109.547 720.797 109.84 720.119 110.04C719.445 110.245 718.649 110.348 717.731 110.348C716.793 110.348 715.98 110.245 715.292 110.04C714.608 109.84 714.081 109.547 713.71 109.161C713.344 108.775 713.161 108.312 713.161 107.77C713.161 107.232 713.344 106.771 713.71 106.385C714.081 106 714.611 105.704 715.299 105.499C715.988 105.294 716.798 105.191 717.731 105.191ZM717.731 106.656C716.847 106.656 716.176 106.751 715.717 106.942C715.258 107.127 715.031 107.403 715.036 107.77C715.021 108.512 715.919 108.883 717.731 108.883C719.499 108.883 720.382 108.512 720.382 107.77C720.382 107.403 720.155 107.127 719.701 106.942C719.252 106.751 718.595 106.656 717.731 106.656Z" fill="#464C53"/>
<defs>
<filter id="filter0_dd_784_11599" x="237" y="50" width="76" height="76" filterUnits="userSpaceOnUse" color-interpolation-filters="sRGB">
<feFlood flood-opacity="0" result="BackgroundImageFix"/>
<feColorMatrix in="SourceAlpha" type="matrix" values="0 0 0 0 0 0 0 0 0 0 0 0 0 0 0 0 0 0 127 0" result="hardAlpha"/>
<feOffset dy="8"/>
<feGaussianBlur stdDeviation="8"/>
<feColorMatrix type="matrix" values="0 0 0 0 0 0 0 0 0 0 0 0 0 0 0 0 0 0 0.12 0"/>
<feBlend mode="normal" in2="BackgroundImageFix" result="effect1_dropShadow_784_11599"/>
<feColorMatrix in="SourceAlpha" type="matrix" values="0 0 0 0 0 0 0 0 0 0 0 0 0 0 0 0 0 0 127 0" result="hardAlpha"/>
<feOffset/>
<feGaussianBlur stdDeviation="1"/>
<feComposite in2="hardAlpha" operator="out"/>
<feColorMatrix type="matrix" values="0 0 0 0 0 0 0 0 0 0 0 0 0 0 0 0 0 0 0.08 0"/>
<feBlend mode="normal" in2="effect1_dropShadow_784_11599" result="effect2_dropShadow_784_11599"/>
<feBlend mode="normal" in="SourceGraphic" in2="effect2_dropShadow_784_11599" result="shape"/>
</filter>
<filter id="filter1_dd_784_11599" x="540" y="50" width="76" height="76" filterUnits="userSpaceOnUse" color-interpolation-filters="sRGB">
<feFlood flood-opacity="0" result="BackgroundImageFix"/>
<feColorMatrix in="SourceAlpha" type="matrix" values="0 0 0 0 0 0 0 0 0 0 0 0 0 0 0 0 0 0 127 0" result="hardAlpha"/>
<feOffset dy="8"/>
<feGaussianBlur stdDeviation="8"/>
<feColorMatrix type="matrix" values="0 0 0 0 0 0 0 0 0 0 0 0 0 0 0 0 0 0 0.12 0"/>
<feBlend mode="normal" in2="BackgroundImageFix" result="effect1_dropShadow_784_11599"/>
<feColorMatrix in="SourceAlpha" type="matrix" values="0 0 0 0 0 0 0 0 0 0 0 0 0 0 0 0 0 0 127 0" result="hardAlpha"/>
<feOffset/>
<feGaussianBlur stdDeviation="1"/>
<feComposite in2="hardAlpha" operator="out"/>
<feColorMatrix type="matrix" values="0 0 0 0 0 0 0 0 0 0 0 0 0 0 0 0 0 0 0.08 0"/>
<feBlend mode="normal" in2="effect1_dropShadow_784_11599" result="effect2_dropShadow_784_11599"/>
<feBlend mode="normal" in="SourceGraphic" in2="effect2_dropShadow_784_11599" result="shape"/>
</filter>
</defs>
</svg>
