<svg width="819" height="277" viewBox="0 0 819 277" fill="none" xmlns="http://www.w3.org/2000/svg">
<path d="M206 137C206 192.228 161.228 237 106 237C50.7715 237 6 192.228 6 137" stroke="#CDD1D5" stroke-width="6" stroke-linecap="round"/>
<path d="M206 140C206 84.7715 161.228 40 106 40C50.7715 40 6 84.7715 6 140" stroke="#063A74" stroke-width="12" stroke-linecap="round"/>
<path d="M53.8984 154.343C57.5908 154.343 59.9102 155.512 59.9287 157.534C59.9102 159.52 57.5908 160.707 53.8984 160.707C50.2432 160.707 47.8867 159.52 47.8867 157.534C47.8867 155.512 50.2432 154.343 53.8984 154.343ZM53.8984 156.105C51.5791 156.105 50.2432 156.588 50.2432 157.534C50.2432 158.443 51.5791 158.907 53.8984 158.907C56.2178 158.907 57.5723 158.443 57.5723 157.534C57.5723 156.588 56.2178 156.105 53.8984 156.105ZM59.8359 144.583V145.956C59.8359 147.292 59.8359 148.739 59.3535 150.483L57.0342 150.261C57.4053 148.73 57.4517 147.589 57.4795 146.438H48.0537V144.583H59.8359ZM61.6543 151.355V153.267H46.3281V151.355H52.0801V148.405H54.418V151.355H61.6543ZM70.3193 154.343C74.0117 154.343 76.3311 155.512 76.3496 157.534C76.3311 159.52 74.0117 160.707 70.3193 160.707C66.6641 160.707 64.3076 159.52 64.3076 157.534C64.3076 155.512 66.6641 154.343 70.3193 154.343ZM70.3193 156.105C68 156.105 66.6641 156.588 66.6641 157.534C66.6641 158.443 68 158.907 70.3193 158.907C72.6387 158.907 73.9932 158.443 73.9932 157.534C73.9932 156.588 72.6387 156.105 70.3193 156.105ZM76.2568 144.583V145.956C76.2568 147.292 76.2568 148.739 75.7744 150.483L73.4551 150.261C73.8262 148.73 73.8726 147.589 73.9004 146.438H64.4746V144.583H76.2568ZM78.0752 151.355V153.267H62.749V151.355H68.501V148.405H70.8389V151.355H78.0752ZM93.7725 143.822V160.707H91.4902V143.822H93.7725ZM90.1914 144.119V159.946H87.9834V151.912H84.959V149.982H87.9834V144.119H90.1914ZM86.1094 145.733V147.626H81.9717V154.974C83.7808 154.964 85.1445 154.872 86.7217 154.547L86.9072 156.477C84.9961 156.866 83.2891 156.94 80.8213 156.94H79.6523V145.733H86.1094ZM109.692 143.822V160.744H107.299V143.822H109.692ZM100.526 145.01C103.068 145.01 104.961 147.348 104.961 151.021C104.961 154.732 103.068 157.052 100.526 157.052C97.9287 157.052 96.0361 154.732 96.0547 151.021C96.0361 147.348 97.9287 145.01 100.526 145.01ZM100.526 147.144C99.209 147.144 98.3369 148.517 98.3369 151.021C98.3369 153.545 99.209 154.899 100.526 154.899C101.807 154.899 102.679 153.545 102.679 151.021C102.679 148.517 101.807 147.144 100.526 147.144ZM126.225 143.822V160.744H123.887V151.689H120.918V149.778H123.887V143.822H126.225ZM120.64 145.232V147.144H115.11V149.945H120.027V151.801H115.11V154.992C117.448 154.974 119.322 154.89 121.419 154.565L121.66 156.458C119.192 156.829 116.984 156.922 114.09 156.922H112.754V145.232H120.64ZM148.472 143.822V160.707H146.227V143.822H148.472ZM145.021 144.101V159.928H142.794V151.522H140.567V149.611H142.794V144.101H145.021ZM139.213 148.35C139.213 151.151 140.085 153.99 142.553 155.4L141.161 157.145C139.658 156.254 138.666 154.742 138.1 152.933C137.515 154.899 136.495 156.569 134.945 157.516L133.517 155.771C136.003 154.25 136.931 151.207 136.931 148.35V147.44H134.166V145.548H141.773V147.44H139.213V148.35ZM157.897 154.343C161.59 154.343 163.909 155.512 163.928 157.534C163.909 159.52 161.59 160.707 157.897 160.707C154.242 160.707 151.886 159.52 151.886 157.534C151.886 155.512 154.242 154.343 157.897 154.343ZM157.897 156.105C155.578 156.105 154.242 156.588 154.242 157.534C154.242 158.443 155.578 158.907 157.897 158.907C160.217 158.907 161.571 158.443 161.571 157.534C161.571 156.588 160.217 156.105 157.897 156.105ZM163.835 144.583V145.956C163.835 147.292 163.835 148.739 163.353 150.483L161.033 150.261C161.404 148.73 161.451 147.589 161.479 146.438H152.053V144.583H163.835ZM165.653 151.355V153.267H150.327V151.355H156.079V148.405H158.417V151.355H165.653ZM75.5796 174.01C77.0918 174.01 78.3535 174.845 79.1235 176.292H82.8345V172.822H85.1724V189.744H82.8345V183.417H79.3091C78.5483 185.087 77.2124 186.052 75.5796 186.052C73.019 186.052 71.1821 183.732 71.2007 180.021C71.1821 176.348 73.019 174.01 75.5796 174.01ZM75.5796 176.144C74.3179 176.144 73.4458 177.517 73.4644 180.021C73.4458 182.545 74.3179 183.899 75.5796 183.899C76.8599 183.899 77.6948 182.545 77.6948 180.021C77.6948 177.517 76.8599 176.144 75.5796 176.144ZM79.7915 178.203C79.8936 178.76 79.9585 179.372 79.9585 180.021C79.9585 180.55 79.9121 181.051 79.8472 181.524H82.8345V178.203H79.7915ZM102.781 182.563V184.419H96.1753V189.707H93.8374V184.419H87.3247V182.563H102.781ZM91.481 173.472V175.42H98.5688V173.472H100.944V180.931H89.1431V173.472H91.481ZM91.481 179.038H98.5688V177.275H91.481V179.038ZM122.746 172.841V177.665H124.898V179.613H122.746V184.308H120.371V172.841H122.746ZM109.052 182.137C110.286 182.137 111.696 182.137 113.153 182.1V181.153C111.316 180.894 110.166 180.003 110.184 178.704C110.166 177.146 111.817 176.181 114.322 176.181C116.808 176.181 118.441 177.146 118.459 178.704C118.441 180.003 117.318 180.884 115.509 181.135V182.007C116.901 181.951 118.283 181.84 119.591 181.673L119.758 183.306C116.196 183.937 112.281 183.974 109.293 183.974L109.052 182.137ZM122.746 184.994V189.707H120.371V186.812H111.205V184.994H122.746ZM119.165 174.065V175.791H109.498V174.065H113.153V172.692H115.509V174.065H119.165ZM114.322 177.758C113.116 177.758 112.429 178.055 112.448 178.704C112.429 179.316 113.116 179.669 114.322 179.669C115.509 179.669 116.177 179.316 116.196 178.704C116.177 178.055 115.509 177.758 114.322 177.758ZM139.797 172.841V184.976H137.422V172.841H139.797ZM140.243 187.518V189.41H128.479V183.751H130.873V187.518H140.243ZM130.539 173.917C133.136 173.917 135.159 175.698 135.159 178.166C135.159 180.689 133.136 182.452 130.539 182.452C127.941 182.452 125.918 180.689 125.918 178.166C125.918 175.698 127.941 173.917 130.539 173.917ZM130.539 175.977C129.221 175.958 128.219 176.793 128.238 178.166C128.219 179.576 129.221 180.393 130.539 180.393C131.819 180.393 132.821 179.576 132.821 178.166C132.821 176.793 131.819 175.958 130.539 175.977Z" fill="black"/>
<path d="M107.812 90.375V109.25H111.969V113H98.5312V109.25H103.094V95.0938L98.5312 98.1875V93.7812L103.438 90.375H107.812Z" fill="black"/>
<path d="M408 140C408 84.7715 363.228 40 308 40C252.772 40 208 84.7715 208 140" stroke="#CDD1D5" stroke-width="6" stroke-linecap="round"/>
<path d="M408 137C408 192.228 363.228 237 308 237C252.772 237 208 192.228 208 137" stroke="#063A74" stroke-width="12" stroke-linecap="round"/>
<path d="M255.898 154.343C259.591 154.343 261.91 155.512 261.929 157.534C261.91 159.52 259.591 160.707 255.898 160.707C252.243 160.707 249.887 159.52 249.887 157.534C249.887 155.512 252.243 154.343 255.898 154.343ZM255.898 156.105C253.579 156.105 252.243 156.588 252.243 157.534C252.243 158.443 253.579 158.907 255.898 158.907C258.218 158.907 259.572 158.443 259.572 157.534C259.572 156.588 258.218 156.105 255.898 156.105ZM261.836 144.583V145.956C261.836 147.292 261.836 148.739 261.354 150.483L259.034 150.261C259.405 148.73 259.452 147.589 259.479 146.438H250.054V144.583H261.836ZM263.654 151.355V153.267H248.328V151.355H254.08V148.405H256.418V151.355H263.654ZM272.319 154.343C276.012 154.343 278.331 155.512 278.35 157.534C278.331 159.52 276.012 160.707 272.319 160.707C268.664 160.707 266.308 159.52 266.308 157.534C266.308 155.512 268.664 154.343 272.319 154.343ZM272.319 156.105C270 156.105 268.664 156.588 268.664 157.534C268.664 158.443 270 158.907 272.319 158.907C274.639 158.907 275.993 158.443 275.993 157.534C275.993 156.588 274.639 156.105 272.319 156.105ZM278.257 144.583V145.956C278.257 147.292 278.257 148.739 277.774 150.483L275.455 150.261C275.826 148.73 275.873 147.589 275.9 146.438H266.475V144.583H278.257ZM280.075 151.355V153.267H264.749V151.355H270.501V148.405H272.839V151.355H280.075ZM295.772 143.822V160.707H293.49V143.822H295.772ZM292.191 144.119V159.946H289.983V151.912H286.959V149.982H289.983V144.119H292.191ZM288.109 145.733V147.626H283.972V154.974C285.781 154.964 287.145 154.872 288.722 154.547L288.907 156.477C286.996 156.866 285.289 156.94 282.821 156.94H281.652V145.733H288.109ZM311.692 143.822V160.744H309.299V143.822H311.692ZM302.526 145.01C305.068 145.01 306.961 147.348 306.961 151.021C306.961 154.732 305.068 157.052 302.526 157.052C299.929 157.052 298.036 154.732 298.055 151.021C298.036 147.348 299.929 145.01 302.526 145.01ZM302.526 147.144C301.209 147.144 300.337 148.517 300.337 151.021C300.337 153.545 301.209 154.899 302.526 154.899C303.807 154.899 304.679 153.545 304.679 151.021C304.679 148.517 303.807 147.144 302.526 147.144ZM328.225 143.822V160.744H325.887V151.689H322.918V149.778H325.887V143.822H328.225ZM322.64 145.232V147.144H317.11V149.945H322.027V151.801H317.11V154.992C319.448 154.974 321.322 154.89 323.419 154.565L323.66 156.458C321.192 156.829 318.984 156.922 316.09 156.922H314.754V145.232H322.64ZM350.472 143.822V160.707H348.227V143.822H350.472ZM347.021 144.101V159.928H344.794V151.522H342.567V149.611H344.794V144.101H347.021ZM341.213 148.35C341.213 151.151 342.085 153.99 344.553 155.4L343.161 157.145C341.658 156.254 340.666 154.742 340.1 152.933C339.515 154.899 338.495 156.569 336.945 157.516L335.517 155.771C338.003 154.25 338.931 151.207 338.931 148.35V147.44H336.166V145.548H343.773V147.44H341.213V148.35ZM359.897 154.343C363.59 154.343 365.909 155.512 365.928 157.534C365.909 159.52 363.59 160.707 359.897 160.707C356.242 160.707 353.886 159.52 353.886 157.534C353.886 155.512 356.242 154.343 359.897 154.343ZM359.897 156.105C357.578 156.105 356.242 156.588 356.242 157.534C356.242 158.443 357.578 158.907 359.897 158.907C362.217 158.907 363.571 158.443 363.571 157.534C363.571 156.588 362.217 156.105 359.897 156.105ZM365.835 144.583V145.956C365.835 147.292 365.835 148.739 365.353 150.483L363.033 150.261C363.404 148.73 363.451 147.589 363.479 146.438H354.053V144.583H365.835ZM367.653 151.355V153.267H352.327V151.355H358.079V148.405H360.417V151.355H367.653ZM306.219 172.841V185.161H303.844V172.841H306.219ZM306.664 187.518V189.41H294.9V183.974H297.294V187.518H306.664ZM298.556 175.401C298.537 177.628 299.725 179.817 302.508 180.708L301.302 182.563C299.4 181.933 298.083 180.671 297.331 179.057C296.58 180.792 295.225 182.183 293.249 182.86L292.024 180.986C294.863 180.04 296.088 177.684 296.088 175.401V173.769H298.556V175.401ZM318.131 174.585V176.44H314.717C314.735 178.175 316.016 179.938 318.725 180.634L317.63 182.452C315.709 181.97 314.355 180.903 313.585 179.521C312.852 181.098 311.498 182.332 309.503 182.897L308.39 181.061C311.099 180.291 312.342 178.361 312.36 176.44H308.965V174.585H312.36V172.748H314.754V174.585H318.131ZM322.732 172.822V183.027H320.376V179.242H317.63V177.35H320.376V172.822H322.732ZM316.962 183.306C320.562 183.324 322.77 184.456 322.788 186.479C322.77 188.52 320.562 189.707 316.962 189.707C313.381 189.707 311.154 188.52 311.154 186.479C311.154 184.456 313.381 183.324 316.962 183.306ZM316.962 185.124C314.717 185.124 313.511 185.569 313.511 186.479C313.511 187.406 314.717 187.907 316.962 187.907C319.244 187.907 320.432 187.406 320.432 186.479C320.432 185.569 319.244 185.124 316.962 185.124Z" fill="black"/>
<path d="M299.875 113V109.688L307.156 102.125C309.031 100.125 310.281 98.9375 310.312 97.0625C310.312 94.9688 308.875 93.8125 307.062 93.8125C305.219 93.8125 303.906 95.0625 303.906 97.3125H299.719C299.688 92.9375 302.688 90.0625 307.156 90.0625C311.531 90.0625 314.625 92.7812 314.625 96.75C314.625 99.2812 313.562 101.344 309.281 105.656L306.094 109V109.125H314.906V113H299.875Z" fill="black"/>
<path d="M813 140C813 84.7715 768.228 40 713 40C657.772 40 613 84.7715 613 140" stroke="#CDD1D5" stroke-width="6" stroke-linecap="round"/>
<path d="M813 137C813 192.228 768.228 237 713 237C657.772 237 613 192.228 613 137" stroke="#063A74" stroke-width="12" stroke-linecap="round"/>
<path d="M660.898 154.343C664.591 154.343 666.91 155.512 666.929 157.534C666.91 159.52 664.591 160.707 660.898 160.707C657.243 160.707 654.887 159.52 654.887 157.534C654.887 155.512 657.243 154.343 660.898 154.343ZM660.898 156.105C658.579 156.105 657.243 156.588 657.243 157.534C657.243 158.443 658.579 158.907 660.898 158.907C663.218 158.907 664.572 158.443 664.572 157.534C664.572 156.588 663.218 156.105 660.898 156.105ZM666.836 144.583V145.956C666.836 147.292 666.836 148.739 666.354 150.483L664.034 150.261C664.405 148.73 664.452 147.589 664.479 146.438H655.054V144.583H666.836ZM668.654 151.355V153.267H653.328V151.355H659.08V148.405H661.418V151.355H668.654ZM677.319 154.343C681.012 154.343 683.331 155.512 683.35 157.534C683.331 159.52 681.012 160.707 677.319 160.707C673.664 160.707 671.308 159.52 671.308 157.534C671.308 155.512 673.664 154.343 677.319 154.343ZM677.319 156.105C675 156.105 673.664 156.588 673.664 157.534C673.664 158.443 675 158.907 677.319 158.907C679.639 158.907 680.993 158.443 680.993 157.534C680.993 156.588 679.639 156.105 677.319 156.105ZM683.257 144.583V145.956C683.257 147.292 683.257 148.739 682.774 150.483L680.455 150.261C680.826 148.73 680.873 147.589 680.9 146.438H671.475V144.583H683.257ZM685.075 151.355V153.267H669.749V151.355H675.501V148.405H677.839V151.355H685.075ZM700.772 143.822V160.707H698.49V143.822H700.772ZM697.191 144.119V159.946H694.983V151.912H691.959V149.982H694.983V144.119H697.191ZM693.109 145.733V147.626H688.972V154.974C690.781 154.964 692.145 154.872 693.722 154.547L693.907 156.477C691.996 156.866 690.289 156.94 687.821 156.94H686.652V145.733H693.109ZM716.692 143.822V160.744H714.299V143.822H716.692ZM707.526 145.01C710.068 145.01 711.961 147.348 711.961 151.021C711.961 154.732 710.068 157.052 707.526 157.052C704.929 157.052 703.036 154.732 703.055 151.021C703.036 147.348 704.929 145.01 707.526 145.01ZM707.526 147.144C706.209 147.144 705.337 148.517 705.337 151.021C705.337 153.545 706.209 154.899 707.526 154.899C708.807 154.899 709.679 153.545 709.679 151.021C709.679 148.517 708.807 147.144 707.526 147.144ZM733.225 143.822V160.744H730.887V151.689H727.918V149.778H730.887V143.822H733.225ZM727.64 145.232V147.144H722.11V149.945H727.027V151.801H722.11V154.992C724.448 154.974 726.322 154.89 728.419 154.565L728.66 156.458C726.192 156.829 723.984 156.922 721.09 156.922H719.754V145.232H727.64ZM755.472 143.822V160.707H753.227V143.822H755.472ZM752.021 144.101V159.928H749.794V151.522H747.567V149.611H749.794V144.101H752.021ZM746.213 148.35C746.213 151.151 747.085 153.99 749.553 155.4L748.161 157.145C746.658 156.254 745.666 154.742 745.1 152.933C744.515 154.899 743.495 156.569 741.945 157.516L740.517 155.771C743.003 154.25 743.931 151.207 743.931 148.35V147.44H741.166V145.548H748.773V147.44H746.213V148.35ZM764.897 154.343C768.59 154.343 770.909 155.512 770.928 157.534C770.909 159.52 768.59 160.707 764.897 160.707C761.242 160.707 758.886 159.52 758.886 157.534C758.886 155.512 761.242 154.343 764.897 154.343ZM764.897 156.105C762.578 156.105 761.242 156.588 761.242 157.534C761.242 158.443 762.578 158.907 764.897 158.907C767.217 158.907 768.571 158.443 768.571 157.534C768.571 156.588 767.217 156.105 764.897 156.105ZM770.835 144.583V145.956C770.835 147.292 770.835 148.739 770.353 150.483L768.033 150.261C768.404 148.73 768.451 147.589 768.479 146.438H759.053V144.583H770.835ZM772.653 151.355V153.267H757.327V151.355H763.079V148.405H765.417V151.355H772.653Z" fill="black"/>
<path d="M703.844 109V105.344L711.562 90.375H716.094L708.531 105.062V105.219H713.75V98.8438H718.125V105.219H720.75V109H718.125V113H713.656V109H703.844Z" fill="black"/>
<path d="M611 137C611 192.228 566.228 237 511 237C455.772 237 411 192.228 411 137" stroke="#CDD1D5" stroke-width="6" stroke-linecap="round"/>
<path d="M611 140C611 84.7715 566.228 40 511 40C455.772 40 411 84.7715 411 140" stroke="#063A74" stroke-width="12" stroke-linecap="round"/>
<path d="M458.898 154.343C462.591 154.343 464.91 155.512 464.929 157.534C464.91 159.52 462.591 160.707 458.898 160.707C455.243 160.707 452.887 159.52 452.887 157.534C452.887 155.512 455.243 154.343 458.898 154.343ZM458.898 156.105C456.579 156.105 455.243 156.588 455.243 157.534C455.243 158.443 456.579 158.907 458.898 158.907C461.218 158.907 462.572 158.443 462.572 157.534C462.572 156.588 461.218 156.105 458.898 156.105ZM464.836 144.583V145.956C464.836 147.292 464.836 148.739 464.354 150.483L462.034 150.261C462.405 148.73 462.452 147.589 462.479 146.438H453.054V144.583H464.836ZM466.654 151.355V153.267H451.328V151.355H457.08V148.405H459.418V151.355H466.654ZM475.319 154.343C479.012 154.343 481.331 155.512 481.35 157.534C481.331 159.52 479.012 160.707 475.319 160.707C471.664 160.707 469.308 159.52 469.308 157.534C469.308 155.512 471.664 154.343 475.319 154.343ZM475.319 156.105C473 156.105 471.664 156.588 471.664 157.534C471.664 158.443 473 158.907 475.319 158.907C477.639 158.907 478.993 158.443 478.993 157.534C478.993 156.588 477.639 156.105 475.319 156.105ZM481.257 144.583V145.956C481.257 147.292 481.257 148.739 480.774 150.483L478.455 150.261C478.826 148.73 478.873 147.589 478.9 146.438H469.475V144.583H481.257ZM483.075 151.355V153.267H467.749V151.355H473.501V148.405H475.839V151.355H483.075ZM498.772 143.822V160.707H496.49V143.822H498.772ZM495.191 144.119V159.946H492.983V151.912H489.959V149.982H492.983V144.119H495.191ZM491.109 145.733V147.626H486.972V154.974C488.781 154.964 490.145 154.872 491.722 154.547L491.907 156.477C489.996 156.866 488.289 156.94 485.821 156.94H484.652V145.733H491.109ZM514.692 143.822V160.744H512.299V143.822H514.692ZM505.526 145.01C508.068 145.01 509.961 147.348 509.961 151.021C509.961 154.732 508.068 157.052 505.526 157.052C502.929 157.052 501.036 154.732 501.055 151.021C501.036 147.348 502.929 145.01 505.526 145.01ZM505.526 147.144C504.209 147.144 503.337 148.517 503.337 151.021C503.337 153.545 504.209 154.899 505.526 154.899C506.807 154.899 507.679 153.545 507.679 151.021C507.679 148.517 506.807 147.144 505.526 147.144ZM531.225 143.822V160.744H528.887V151.689H525.918V149.778H528.887V143.822H531.225ZM525.64 145.232V147.144H520.11V149.945H525.027V151.801H520.11V154.992C522.448 154.974 524.322 154.89 526.419 154.565L526.66 156.458C524.192 156.829 521.984 156.922 519.09 156.922H517.754V145.232H525.64ZM553.472 143.822V160.707H551.227V143.822H553.472ZM550.021 144.101V159.928H547.794V151.522H545.567V149.611H547.794V144.101H550.021ZM544.213 148.35C544.213 151.151 545.085 153.99 547.553 155.4L546.161 157.145C544.658 156.254 543.666 154.742 543.1 152.933C542.515 154.899 541.495 156.569 539.945 157.516L538.517 155.771C541.003 154.25 541.931 151.207 541.931 148.35V147.44H539.166V145.548H546.773V147.44H544.213V148.35ZM562.897 154.343C566.59 154.343 568.909 155.512 568.928 157.534C568.909 159.52 566.59 160.707 562.897 160.707C559.242 160.707 556.886 159.52 556.886 157.534C556.886 155.512 559.242 154.343 562.897 154.343ZM562.897 156.105C560.578 156.105 559.242 156.588 559.242 157.534C559.242 158.443 560.578 158.907 562.897 158.907C565.217 158.907 566.571 158.443 566.571 157.534C566.571 156.588 565.217 156.105 562.897 156.105ZM568.835 144.583V145.956C568.835 147.292 568.835 148.739 568.353 150.483L566.033 150.261C566.404 148.73 566.451 147.589 566.479 146.438H557.053V144.583H568.835ZM570.653 151.355V153.267H555.327V151.355H561.079V148.405H563.417V151.355H570.653ZM480.58 174.01C482.092 174.01 483.354 174.845 484.124 176.292H487.834V172.822H490.172V189.744H487.834V183.417H484.309C483.548 185.087 482.212 186.052 480.58 186.052C478.019 186.052 476.182 183.732 476.201 180.021C476.182 176.348 478.019 174.01 480.58 174.01ZM480.58 176.144C479.318 176.144 478.446 177.517 478.464 180.021C478.446 182.545 479.318 183.899 480.58 183.899C481.86 183.899 482.695 182.545 482.695 180.021C482.695 177.517 481.86 176.144 480.58 176.144ZM484.792 178.203C484.894 178.76 484.958 179.372 484.958 180.021C484.958 180.55 484.912 181.051 484.847 181.524H487.834V178.203H484.792ZM507.781 182.563V184.419H501.175V189.707H498.837V184.419H492.325V182.563H507.781ZM496.481 173.472V175.42H503.569V173.472H505.944V180.931H494.143V173.472H496.481ZM496.481 179.038H503.569V177.275H496.481V179.038ZM528.469 172.822V181.32H526.113V180.021H522.253V178.222H526.113V176.737H522.439C521.391 179.279 518.979 180.903 515.24 181.71L514.442 179.78C518.311 179.01 520.101 177.415 520.417 175.383H515.388V173.472H523.033C523.033 173.982 522.996 174.474 522.921 174.938H526.113V172.822H528.469ZM528.469 181.933V186.553H519.637V187.666H528.84V189.54H517.262V184.809H526.094V183.788H517.244V181.933H528.469ZM544.89 172.822V182.842H542.534V178.853H539.899V176.941H542.534V172.822H544.89ZM539.12 183.213C542.719 183.231 544.927 184.419 544.946 186.479C544.927 188.52 542.719 189.726 539.12 189.726C535.52 189.726 533.312 188.52 533.312 186.479C533.312 184.419 535.52 183.231 539.12 183.213ZM539.12 185.031C536.875 185.031 535.668 185.495 535.668 186.479C535.668 187.443 536.875 187.926 539.12 187.926C541.365 187.926 542.589 187.443 542.589 186.479C542.589 185.495 541.365 185.031 539.12 185.031ZM540.4 173.843V175.735H537.042C537.097 177.702 538.285 179.688 540.919 180.56L539.75 182.415C537.886 181.812 536.605 180.587 535.873 179.057C535.121 180.782 533.776 182.174 531.772 182.86L530.547 180.986C533.321 180.059 534.564 177.851 534.629 175.735H531.234V173.843H540.4Z" fill="black"/>
<path d="M506.625 106.625C506.719 108.438 508.25 109.406 510.156 109.438C512.125 109.406 513.625 108.281 513.625 106.219C513.625 104.25 512.281 102.906 509.594 102.906H507.219V99.7188L511.812 94.4688V94.2188H503.188V90.375H517.5V93.6875L512 99.8125V100.125C516.281 100.688 518.219 103.562 518.219 106.531C518.219 110.531 514.781 113.312 510.156 113.312C505.562 113.312 502.281 110.625 502.156 106.625H506.625Z" fill="black"/>
<g filter="url(#filter0_dd_733_14367)">
<circle cx="611" cy="140" r="22" fill="white"/>
</g>
<path d="M607.926 139.861L603 126L622.809 139.861L603 153.722L607.926 139.861Z" fill="#256EF4"/>
<g filter="url(#filter1_dd_733_14367)">
<circle cx="206" cy="140" r="22" fill="white"/>
</g>
<path d="M202.926 139.861L198 126L217.809 139.861L198 153.722L202.926 139.861Z" fill="#256EF4"/>
<g filter="url(#filter2_dd_733_14367)">
<circle cx="408" cy="140" r="22" fill="white"/>
</g>
<path d="M404.926 139.861L400 126L419.809 139.861L400 153.722L404.926 139.861Z" fill="#256EF4"/>
<defs>
<filter id="filter0_dd_733_14367" x="573" y="110" width="76" height="76" filterUnits="userSpaceOnUse" color-interpolation-filters="sRGB">
<feFlood flood-opacity="0" result="BackgroundImageFix"/>
<feColorMatrix in="SourceAlpha" type="matrix" values="0 0 0 0 0 0 0 0 0 0 0 0 0 0 0 0 0 0 127 0" result="hardAlpha"/>
<feOffset dy="8"/>
<feGaussianBlur stdDeviation="8"/>
<feColorMatrix type="matrix" values="0 0 0 0 0 0 0 0 0 0 0 0 0 0 0 0 0 0 0.12 0"/>
<feBlend mode="normal" in2="BackgroundImageFix" result="effect1_dropShadow_733_14367"/>
<feColorMatrix in="SourceAlpha" type="matrix" values="0 0 0 0 0 0 0 0 0 0 0 0 0 0 0 0 0 0 127 0" result="hardAlpha"/>
<feOffset/>
<feGaussianBlur stdDeviation="1"/>
<feComposite in2="hardAlpha" operator="out"/>
<feColorMatrix type="matrix" values="0 0 0 0 0 0 0 0 0 0 0 0 0 0 0 0 0 0 0.08 0"/>
<feBlend mode="normal" in2="effect1_dropShadow_733_14367" result="effect2_dropShadow_733_14367"/>
<feBlend mode="normal" in="SourceGraphic" in2="effect2_dropShadow_733_14367" result="shape"/>
</filter>
<filter id="filter1_dd_733_14367" x="168" y="110" width="76" height="76" filterUnits="userSpaceOnUse" color-interpolation-filters="sRGB">
<feFlood flood-opacity="0" result="BackgroundImageFix"/>
<feColorMatrix in="SourceAlpha" type="matrix" values="0 0 0 0 0 0 0 0 0 0 0 0 0 0 0 0 0 0 127 0" result="hardAlpha"/>
<feOffset dy="8"/>
<feGaussianBlur stdDeviation="8"/>
<feColorMatrix type="matrix" values="0 0 0 0 0 0 0 0 0 0 0 0 0 0 0 0 0 0 0.12 0"/>
<feBlend mode="normal" in2="BackgroundImageFix" result="effect1_dropShadow_733_14367"/>
<feColorMatrix in="SourceAlpha" type="matrix" values="0 0 0 0 0 0 0 0 0 0 0 0 0 0 0 0 0 0 127 0" result="hardAlpha"/>
<feOffset/>
<feGaussianBlur stdDeviation="1"/>
<feComposite in2="hardAlpha" operator="out"/>
<feColorMatrix type="matrix" values="0 0 0 0 0 0 0 0 0 0 0 0 0 0 0 0 0 0 0.08 0"/>
<feBlend mode="normal" in2="effect1_dropShadow_733_14367" result="effect2_dropShadow_733_14367"/>
<feBlend mode="normal" in="SourceGraphic" in2="effect2_dropShadow_733_14367" result="shape"/>
</filter>
<filter id="filter2_dd_733_14367" x="370" y="110" width="76" height="76" filterUnits="userSpaceOnUse" color-interpolation-filters="sRGB">
<feFlood flood-opacity="0" result="BackgroundImageFix"/>
<feColorMatrix in="SourceAlpha" type="matrix" values="0 0 0 0 0 0 0 0 0 0 0 0 0 0 0 0 0 0 127 0" result="hardAlpha"/>
<feOffset dy="8"/>
<feGaussianBlur stdDeviation="8"/>
<feColorMatrix type="matrix" values="0 0 0 0 0 0 0 0 0 0 0 0 0 0 0 0 0 0 0.12 0"/>
<feBlend mode="normal" in2="BackgroundImageFix" result="effect1_dropShadow_733_14367"/>
<feColorMatrix in="SourceAlpha" type="matrix" values="0 0 0 0 0 0 0 0 0 0 0 0 0 0 0 0 0 0 127 0" result="hardAlpha"/>
<feOffset/>
<feGaussianBlur stdDeviation="1"/>
<feComposite in2="hardAlpha" operator="out"/>
<feColorMatrix type="matrix" values="0 0 0 0 0 0 0 0 0 0 0 0 0 0 0 0 0 0 0.08 0"/>
<feBlend mode="normal" in2="effect1_dropShadow_733_14367" result="effect2_dropShadow_733_14367"/>
<feBlend mode="normal" in="SourceGraphic" in2="effect2_dropShadow_733_14367" result="shape"/>
</filter>
</defs>
</svg>
