<svg width="320" height="320" viewBox="0 0 320 320" fill="none" xmlns="http://www.w3.org/2000/svg">
<rect x="0.2" y="0.2" width="319.6" height="319.6" fill="#F4F5F6"/>
<rect x="0.2" y="0.2" width="319.6" height="319.6" stroke="#B1B8BE" stroke-width="0.4"/>
<g opacity="0.45">
<path d="M186.128 145.911H133.338V128.001H186.128V145.911Z" fill="white"/>
<path d="M180.534 167.556L133.339 192V172.972L186.128 145.911V157.816C186.128 161.833 184.399 165.555 180.534 167.556Z" fill="white"/>
<path d="M247.667 145.911H193.686V128.001H247.667V145.911Z" fill="white"/>
<path d="M125.784 145.91H73V128H125.784V145.91Z" fill="white"/>
<path d="M120.193 167.556L73.0002 191.998V172.971L125.784 145.911V157.815C125.784 161.833 124.05 165.554 120.193 167.556Z" fill="white"/>
<path d="M193.686 161.568V170.756C193.686 175.574 197.59 179.481 202.411 179.481H247.667V161.568H193.686Z" fill="white"/>
</g>
</svg>
