<svg width="264" height="32" viewBox="0 0 264 32" fill="none" xmlns="http://www.w3.org/2000/svg">
<path d="M56.5637 8.95588H30.1689V0.000376701H56.5637V8.95588Z" fill="#02983B"/>
<path d="M53.767 19.7783L30.1694 32V22.486L56.5639 8.95564V14.908C56.5639 16.9167 55.6992 18.7773 53.767 19.7783Z" fill="#004097"/>
<path d="M87.3333 8.95583H60.3428V0.000330925H87.3333V8.95583Z" fill="#02983B"/>
<path d="M26.392 8.9552H0V0H26.392V8.9552Z" fill="#02983B"/>
<path d="M23.5963 19.778L0 31.9991V22.4854L26.392 8.95533V14.9077C26.392 16.9164 25.5249 18.777 23.5963 19.778Z" fill="#004097"/>
<path d="M60.3428 16.7839V21.3779C60.3428 23.7872 62.295 25.7407 64.7055 25.7407H87.3333V16.7839H60.3428Z" fill="#004097"/>
<path d="M97.5175 4.69603V2.12003H106.729C107.495 2.12003 108.036 2.32536 108.353 2.73603C108.671 3.12803 108.829 3.66003 108.829 4.33203H113.477V1.72803H116.669V12.844C116.669 13.7774 116.464 14.5894 116.053 15.28C115.661 15.9707 115.129 16.568 114.457 17.072C114.887 17.576 115.223 18.1454 115.465 18.78C115.727 19.4147 115.857 20.096 115.857 20.824C115.857 21.7014 115.671 22.4947 115.297 23.204C114.943 23.932 114.467 24.5574 113.869 25.08C113.253 25.6027 112.544 26.004 111.741 26.284C110.939 26.564 110.089 26.704 109.193 26.704C108.279 26.704 107.411 26.564 106.589 26.284C105.787 26.004 105.077 25.6027 104.461 25.08C103.864 24.576 103.388 23.96 103.033 23.232C102.679 22.504 102.501 21.7014 102.501 20.824C102.501 19.9467 102.679 19.144 103.033 18.416C103.388 17.688 103.864 17.0627 104.461 16.54C105.077 16.0174 105.787 15.616 106.589 15.336C107.411 15.0374 108.279 14.888 109.193 14.888C109.791 14.888 110.369 14.9627 110.929 15.112C111.508 15.2427 112.049 15.42 112.553 15.644C112.871 15.3267 113.104 14.944 113.253 14.496C113.403 14.048 113.477 13.4787 113.477 12.788V12.368H108.129V9.84803H113.477V6.85203H108.353C107.681 8.70003 106.468 10.408 104.713 11.976C102.977 13.5254 100.943 14.8414 98.6095 15.924L97.2375 13.348C98.1335 12.9374 99.0108 12.48 99.8695 11.976C100.728 11.4534 101.521 10.884 102.249 10.268C102.977 9.65203 103.612 8.98936 104.153 8.28003C104.713 7.55203 105.133 6.74936 105.413 5.87203C105.525 5.46136 105.535 5.1627 105.441 4.97603C105.348 4.78936 105.133 4.69603 104.797 4.69603H97.5175ZM112.581 20.824C112.581 19.816 112.264 19.004 111.629 18.388C111.013 17.7534 110.201 17.436 109.193 17.436C108.167 17.436 107.327 17.7534 106.673 18.388C106.039 19.004 105.721 19.816 105.721 20.824C105.721 21.832 106.039 22.6347 106.673 23.232C107.327 23.848 108.167 24.156 109.193 24.156C110.201 24.156 111.013 23.848 111.629 23.232C112.264 22.6347 112.581 21.832 112.581 20.824ZM140.319 24.324H137.099V2.00803H140.319V24.324ZM123.015 19.984L121.307 17.604C122.483 16.7827 123.537 15.9707 124.471 15.168C125.423 14.3467 126.244 13.5067 126.935 12.648C127.644 11.7707 128.223 10.856 128.671 9.90403C129.119 8.93336 129.445 7.8787 129.651 6.74003C129.688 6.46003 129.688 6.1987 129.651 5.95603C129.613 5.6947 129.399 5.56403 129.007 5.56403H121.279V2.96003H131.079C131.919 2.96003 132.479 3.2307 132.759 3.77203C133.039 4.31336 133.151 4.9387 133.095 5.64803C132.964 6.91736 132.656 8.20536 132.171 9.51203C131.704 10.8 131.051 12.06 130.211 13.292C129.371 14.524 128.353 15.7094 127.159 16.848C125.964 17.9867 124.583 19.032 123.015 19.984ZM155.708 15.252L156.324 17.66C155.446 18.052 154.429 18.3507 153.272 18.556C152.114 18.7427 151.05 18.836 150.08 18.836H148.176C146.981 18.836 146.113 18.6027 145.572 18.136C145.03 17.6507 144.76 16.876 144.76 15.812V2.96003H154.728V5.50803H147.812V15.364C147.812 15.7 147.877 15.9334 148.008 16.064C148.157 16.176 148.39 16.232 148.708 16.232H150.024C150.845 16.232 151.797 16.1574 152.88 16.008C153.981 15.84 154.924 15.588 155.708 15.252ZM160.412 23.764H157.416V12.004H152.46V9.26003H157.416V2.00803H160.412V23.764ZM166.068 24.324H163.072V2.00803H166.068V24.324ZM189.298 2.00803V24.324H186.078V2.00803H189.298ZM182.606 10.492C182.606 11.5374 182.447 12.5174 182.13 13.432C181.812 14.328 181.355 15.1027 180.758 15.756C180.179 16.428 179.451 16.96 178.574 17.352C177.715 17.7254 176.744 17.912 175.662 17.912C174.56 17.912 173.571 17.7254 172.694 17.352C171.835 16.96 171.116 16.428 170.538 15.756C169.94 15.1027 169.483 14.328 169.166 13.432C168.867 12.5174 168.718 11.5374 168.718 10.492C168.718 9.46536 168.867 8.50403 169.166 7.60803C169.483 6.69336 169.94 5.90003 170.538 5.22803C171.135 4.55603 171.863 4.02403 172.722 3.63203C173.58 3.24003 174.56 3.04403 175.662 3.04403C176.744 3.04403 177.715 3.24003 178.574 3.63203C179.451 4.02403 180.179 4.55603 180.758 5.22803C181.355 5.90003 181.812 6.69336 182.13 7.60803C182.447 8.50403 182.606 9.46536 182.606 10.492ZM179.47 10.492C179.47 9.85736 179.386 9.2507 179.218 8.67203C179.05 8.09336 178.807 7.58936 178.49 7.16003C178.172 6.7307 177.771 6.38536 177.286 6.12403C176.819 5.8627 176.278 5.73203 175.662 5.73203C175.027 5.73203 174.476 5.8627 174.01 6.12403C173.543 6.38536 173.151 6.7307 172.834 7.16003C172.516 7.58936 172.274 8.09336 172.106 8.67203C171.956 9.2507 171.882 9.85736 171.882 10.492C171.882 11.1454 171.956 11.7614 172.106 12.34C172.274 12.9 172.516 13.3947 172.834 13.824C173.151 14.2534 173.543 14.5987 174.01 14.86C174.476 15.1027 175.027 15.224 175.662 15.224C176.278 15.224 176.819 15.1027 177.286 14.86C177.771 14.5987 178.172 14.2534 178.49 13.824C178.807 13.3947 179.05 12.9 179.218 12.34C179.386 11.7614 179.47 11.1454 179.47 10.492ZM207.291 15.924L207.767 18.388C206.591 18.78 205.275 19.088 203.819 19.312C202.382 19.5174 201.056 19.62 199.843 19.62H196.847C195.783 19.62 194.952 19.3494 194.355 18.808C193.776 18.248 193.487 17.436 193.487 16.372V2.96003H205.387V5.59203H196.679V9.59603H204.099V12.228H196.679V16.064C196.679 16.3067 196.754 16.5214 196.903 16.708C197.052 16.8947 197.267 16.988 197.547 16.988H199.703C200.226 16.988 200.804 16.9694 201.439 16.932C202.074 16.8947 202.727 16.8294 203.399 16.736C204.071 16.6427 204.734 16.5307 205.387 16.4C206.059 16.2694 206.694 16.1107 207.291 15.924ZM205.667 12.144V9.48403H210.063V2.00803H213.283V24.324H210.063V12.144H205.667ZM229.96 6.32003H233.068V9.70803C233.068 10.212 233.021 10.7067 232.928 11.192C232.835 11.6774 232.676 12.144 232.452 12.592H235.7V15.168H228.868V19.284H238.08V21.86H216.492V19.284H225.564V15.168H218.564V12.592H221.84C221.635 12.2 221.476 11.78 221.364 11.332C221.252 10.884 221.196 10.352 221.196 9.73603V6.32003H224.304V10.016C224.304 10.464 224.323 10.9027 224.36 11.332C224.416 11.7427 224.547 12.1627 224.752 12.592H229.596C229.745 12.2187 229.839 11.7987 229.876 11.332C229.932 10.8467 229.96 10.408 229.96 10.016V6.32003ZM235.56 5.17203H218.704V2.56803H235.56V5.17203ZM255.961 26.116H247.225C246.609 26.116 246.096 25.9667 245.685 25.668C245.274 25.388 245.069 24.8654 245.069 24.1V19.62H257.585V17.996H245.069V15.532H256.437C256.866 15.1774 257.165 14.692 257.333 14.076C257.52 13.4414 257.613 12.788 257.613 12.116V8.39203H253.581V5.84403H257.613V1.72803H260.805V12.172C260.805 12.956 260.637 13.6187 260.301 14.16C259.984 14.7014 259.61 15.168 259.181 15.56C259.853 15.616 260.301 15.8027 260.525 16.12C260.749 16.4187 260.833 16.876 260.777 17.492L260.329 21.132C260.292 21.412 260.208 21.6267 260.077 21.776C259.946 21.9067 259.704 21.972 259.349 21.972H248.317V23.652H255.933C256.642 23.652 257.398 23.6054 258.201 23.512C259.022 23.4374 259.816 23.288 260.581 23.064L261.169 25.388C260.236 25.668 259.33 25.8547 258.453 25.948C257.594 26.06 256.764 26.116 255.961 26.116ZM245.069 11.136H246.833C248.233 11.136 249.586 11.08 250.893 10.968C252.218 10.8374 253.497 10.5947 254.729 10.24L255.233 12.592C254.729 12.7787 254.113 12.9467 253.385 13.096C252.676 13.2267 251.92 13.3387 251.117 13.432C250.314 13.5254 249.521 13.5907 248.737 13.628C247.953 13.6654 247.253 13.684 246.637 13.684H244.425C243.454 13.684 242.652 13.4694 242.017 13.04C241.401 12.6107 241.093 11.8547 241.093 10.772V2.12003H252.881V4.66803H244.257V6.51603H251.901V9.03603H244.257V10.352C244.257 10.6507 244.313 10.856 244.425 10.968C244.537 11.08 244.752 11.136 245.069 11.136Z" fill="#575756"/>
</svg>
