<svg width="24" height="24" viewBox="0 0 24 24" fill="none" xmlns="http://www.w3.org/2000/svg">
<path fill-rule="evenodd" clip-rule="evenodd" d="M12.4053 19.7351C12.7009 20.0635 13.2067 20.0902 13.5351 19.7946L21.5351 12.5949C21.7037 12.4432 21.8 12.2271 21.8 12.0003C21.8 11.7735 21.7037 11.5574 21.5351 11.4056L13.5351 4.20515C13.2068 3.90957 12.7009 3.93617 12.4053 4.26457C12.1098 4.59297 12.1364 5.0988 12.4648 5.39438L19.8041 12.0002L12.4648 18.6053C12.1364 18.9009 12.1098 19.4067 12.4053 19.7351Z" fill="#8A949E"/>
<path fill-rule="evenodd" clip-rule="evenodd" d="M2.40531 19.7351C2.70087 20.0635 3.2067 20.0902 3.53512 19.7946L11.5351 12.5949C11.7037 12.4432 11.8 12.2271 11.8 12.0003C11.8 11.7735 11.7037 11.5574 11.5351 11.4056L3.53515 4.20515C3.20675 3.90957 2.70092 3.93617 2.40534 4.26457C2.10976 4.59297 2.13637 5.0988 2.46477 5.39438L9.80409 12.0002L2.4648 18.6053C2.13638 18.9009 2.10975 19.4067 2.40531 19.7351Z" fill="#8A949E"/>
</svg>
