<svg width="20" height="20" viewBox="0 0 20 20" fill="none" xmlns="http://www.w3.org/2000/svg">
<path fill-rule="evenodd" clip-rule="evenodd" d="M17.9956 16.4458C17.7493 16.7195 17.3278 16.7417 17.0541 16.4954L10.3874 10.4952C10.247 10.3688 10.1667 10.1887 10.1667 9.99968C10.1667 9.81069 10.247 9.63058 10.3874 9.50415L17.0541 3.50415C17.3278 3.25784 17.7493 3.28003 17.9956 3.5537C18.2419 3.82738 18.2197 4.2489 17.9461 4.49521L11.83 9.99969L17.9461 15.5043C18.2197 15.7506 18.2419 16.1722 17.9956 16.4458Z" fill="#8A949E"/>
<path fill-rule="evenodd" clip-rule="evenodd" d="M9.66235 16.4458C9.41604 16.7195 8.99451 16.7417 8.72084 16.4954L2.05417 10.4952C1.9137 10.3688 1.83349 10.1887 1.83349 9.99968C1.83349 9.81069 1.91371 9.63058 2.05418 9.50415L8.72085 3.50415C8.99452 3.25784 9.41605 3.28003 9.66235 3.5537C9.90866 3.82738 9.88647 4.2489 9.6128 4.49521L3.49671 9.99969L9.61281 15.5043C9.88648 15.7506 9.90866 16.1722 9.66235 16.4458Z" fill="#8A949E"/>
</svg>
