<svg width="20" height="20" viewBox="0 0 20 20" fill="none" xmlns="http://www.w3.org/2000/svg">
<path d="M3.45312 11.1309C7.54549 8.45131 12.856 8.52896 16.8682 11.3271C17.2636 11.6029 17.499 12.055 17.499 12.5371V16C17.499 16.8284 16.8274 17.5 15.999 17.5H4C3.17161 17.5 2.50006 16.8284 2.5 16V12.5654C2.50009 12.0596 2.75554 11.5876 3.17871 11.3105L3.45312 11.1309ZM16.1055 12.4209C12.5399 9.93414 7.82048 9.86489 4.18359 12.2461L3.90918 12.4258C3.86223 12.4565 3.8331 12.5093 3.83301 12.5654V16C3.83306 16.092 3.90799 16.167 4 16.167H15.999C16.091 16.167 16.166 16.092 16.166 16V12.5371C16.166 12.4909 16.1434 12.4473 16.1055 12.4209ZM10 1.66699C11.8409 1.66699 13.333 3.15905 13.333 5C13.333 6.84095 11.8409 8.33301 10 8.33301C8.15905 8.33301 6.66699 6.84095 6.66699 5C6.66699 3.15905 8.15905 1.66699 10 1.66699ZM10 3C8.89543 3 8 3.89543 8 5C8 6.10457 8.89543 7 10 7C11.1046 7 12 6.10457 12 5C12 3.89543 11.1046 3 10 3Z" fill="#33363D"/>
</svg>
