<svg width="16" height="16" viewBox="0 0 16 16" fill="none" xmlns="http://www.w3.org/2000/svg">
<g id="icon/visibility_off">
<path id="Vector" fill-rule="evenodd" clip-rule="evenodd" d="M2.75295 1.99996C2.54467 1.79168 2.20698 1.79168 1.9987 1.99996C1.79042 2.20824 1.79042 2.54593 1.9987 2.75421L4.04395 4.7994C4.04381 4.79947 4.04367 4.79955 4.04353 4.79963L4.83421 5.59028C4.83435 5.59021 4.8345 5.59014 4.83465 5.59006L5.86995 6.62533C5.86986 6.62547 5.86978 6.6256 5.86969 6.62573L6.65473 7.41074C6.65479 7.41059 6.65486 7.41044 6.65492 7.41028L8.58802 9.34332C8.58787 9.34339 8.58772 9.34345 8.58757 9.34352L9.37261 10.1285C9.37274 10.1284 9.37287 10.1284 9.373 10.1283L10.1249 10.8801C10.1247 10.8801 10.1245 10.8802 10.1243 10.8802L10.9788 11.7347C10.979 11.7347 10.9792 11.7346 10.9793 11.7345L13.2449 14C13.4531 14.2083 13.7908 14.2083 13.9991 14C14.2074 13.7917 14.2074 13.454 13.9991 13.2458L2.75295 1.99996ZM1.34884 7.93645C1.64407 6.78869 2.48151 5.79888 3.5727 5.08304L4.34607 5.85639L4.31104 5.87771C3.34698 6.46891 2.68182 7.24487 2.42334 8.05797C2.79748 9.05709 4.40665 11.1334 7.9987 11.1334C8.54548 11.1334 9.04583 11.0901 9.50257 11.0127L10.3995 11.9097C9.6944 12.0935 8.89584 12.2001 7.9987 12.2001C3.74636 12.2001 1.75064 9.59284 1.35301 8.21742C1.32653 8.12582 1.32509 8.0288 1.34884 7.93645ZM5.46484 8.00009C5.46484 7.69398 5.51914 7.40055 5.61862 7.1289L6.53211 8.04236C6.55408 8.8188 7.1795 9.44421 7.95595 9.46616L8.86944 10.3796C8.59778 10.4791 8.30432 10.5334 7.99818 10.5334C6.59906 10.5334 5.46484 9.39921 5.46484 8.00009ZM10.3778 8.87102L9.46424 7.95745C9.44208 7.1813 8.81692 6.55616 8.04077 6.53403L7.12717 5.62046C7.39877 5.52103 7.69213 5.46676 7.99818 5.46676C9.3973 5.46676 10.5315 6.60097 10.5315 8.00009C10.5315 8.3061 10.4773 8.59945 10.3778 8.87102ZM7.9987 4.86676C7.49437 4.86676 6.99904 4.91944 6.52379 5.0171L5.64415 4.13749C6.38771 3.91994 7.18407 3.80009 7.9987 3.80009C11.0963 3.80009 13.8831 5.55202 14.6393 7.9062C14.6692 7.9994 14.6729 8.09905 14.65 8.19422C14.4358 9.08337 13.7471 10.1748 12.5006 10.9937L11.7274 10.2206C12.8049 9.57422 13.3744 8.71416 13.5731 8.08698C12.9228 6.3518 10.6928 4.86676 7.9987 4.86676Z" fill="#303336"/>
</g>
</svg>
