<svg width="24" height="24" viewBox="0 0 24 24" fill="none" xmlns="http://www.w3.org/2000/svg">
<path d="M13.5 2C13.7121 2 13.9154 2.08441 14.0654 2.23438L19.7646 7.93457C19.9146 8.08455 19.999 8.28792 19.999 8.5V11H20C20.5523 11 21 11.4477 21 12V18C21 18.5523 20.5523 19 20 19H19.999V20.2002C19.999 21.1943 19.1933 22 18.1992 22H5.7998C4.80578 21.9999 4 21.1942 4 20.2002V3.7998C4.00011 2.80585 4.80585 2.00011 5.7998 2H13.5ZM5.7998 3.59961C5.6895 3.59971 5.59971 3.6895 5.59961 3.7998V20.2002C5.59961 20.3106 5.68944 20.4003 5.7998 20.4004H18.1992C18.3097 20.4004 18.3994 20.3107 18.3994 20.2002V19H8C7.44772 19 7 18.5523 7 18V12C7 11.4477 7.44772 11 8 11H18.3994V9.2998H14.5C13.5059 9.2998 12.7002 8.49411 12.7002 7.5V3.59961H5.7998ZM14.2998 7.5C14.2998 7.61046 14.3895 7.7002 14.5 7.7002H17.2686L14.2998 4.73145V7.5Z" fill="#33363D"/>
<path d="M9.18262 16.4844L11.3848 13.3584H9.35986V12.7515H12.2603V13.2778L10.0527 16.3984H12.3193V17H9.18262V16.4844ZM12.9585 17V12.7515H13.6675V17H12.9585ZM14.6128 17V12.7515H16.2725C16.7165 12.7515 17.062 12.8714 17.3091 13.1113C17.5597 13.3477 17.6851 13.661 17.6851 14.0513C17.6851 14.4523 17.5562 14.7692 17.2983 15.002C17.0441 15.2347 16.7057 15.3511 16.2832 15.3511H15.3218V17H14.6128ZM15.3218 14.7495H16.1865C16.43 14.7495 16.6198 14.6904 16.7559 14.5723C16.8919 14.4541 16.96 14.2804 16.96 14.0513C16.96 13.8257 16.8937 13.6538 16.7612 13.5356C16.6287 13.4175 16.4354 13.3584 16.1812 13.3584H15.3218V14.7495Z" fill="white"/>
</svg>
