<svg width="24" height="24" viewBox="0 0 24 24" fill="none" xmlns="http://www.w3.org/2000/svg">
<path d="M13.5 2C13.7121 2 13.9154 2.08441 14.0654 2.23438L19.7646 7.93457C19.9146 8.08455 19.999 8.28792 19.999 8.5V11H20C20.5523 11 21 11.4477 21 12V18C21 18.5523 20.5523 19 20 19H19.999V20.2002C19.999 21.1943 19.1933 22 18.1992 22H5.7998C4.80578 21.9999 4 21.1942 4 20.2002V3.7998C4.00011 2.80585 4.80585 2.00011 5.7998 2H13.5ZM5.7998 3.59961C5.6895 3.59971 5.59971 3.6895 5.59961 3.7998V20.2002C5.59961 20.3106 5.68944 20.4003 5.7998 20.4004H18.1992C18.3097 20.4004 18.3994 20.3107 18.3994 20.2002V19H8C7.44772 19 7 18.5523 7 18V12C7 11.4477 7.44772 11 8 11H18.3994V9.2998H14.5C13.5059 9.2998 12.7002 8.49411 12.7002 7.5V3.59961H5.7998ZM14.2998 7.5C14.2998 7.61046 14.3895 7.7002 14.5 7.7002H17.2686L14.2998 4.73145V7.5Z" fill="#33363D"/>
<path d="M8.47803 17V12.7515H10.1377C10.5817 12.7515 10.9272 12.8714 11.1743 13.1113C11.425 13.3477 11.5503 13.661 11.5503 14.0513C11.5503 14.4523 11.4214 14.7692 11.1636 15.002C10.9093 15.2347 10.571 15.3511 10.1484 15.3511H9.18701V17H8.47803ZM9.18701 14.7495H10.0518C10.2952 14.7495 10.485 14.6904 10.6211 14.5723C10.7572 14.4541 10.8252 14.2804 10.8252 14.0513C10.8252 13.8257 10.759 13.6538 10.6265 13.5356C10.494 13.4175 10.3006 13.3584 10.0464 13.3584H9.18701V14.7495ZM12.2163 17V12.7515H13.876C14.32 12.7515 14.6655 12.8714 14.9126 13.1113C15.1632 13.3477 15.2886 13.661 15.2886 14.0513C15.2886 14.4523 15.1597 14.7692 14.9019 15.002C14.6476 15.2347 14.3092 15.3511 13.8867 15.3511H12.9253V17H12.2163ZM12.9253 14.7495H13.79C14.0335 14.7495 14.2233 14.6904 14.3594 14.5723C14.4954 14.4541 14.5635 14.2804 14.5635 14.0513C14.5635 13.8257 14.4972 13.6538 14.3647 13.5356C14.2323 13.4175 14.0389 13.3584 13.7847 13.3584H12.9253V14.7495ZM15.5142 13.3584V12.7515H18.6724V13.3584H17.4478V17H16.7388V13.3584H15.5142Z" fill="white"/>
</svg>
