<svg width="20" height="20" viewBox="0 0 20 20" fill="none" xmlns="http://www.w3.org/2000/svg">
<path d="M9.99902 2.5C10.3672 2.5 10.666 2.7988 10.666 3.16699V9.33398H16.833C17.2011 9.33398 17.4999 9.63188 17.5 10C17.5 10.3682 17.2012 10.667 16.833 10.667H10.666V16.834C10.6658 17.2019 10.3671 17.5 9.99902 17.5C9.63115 17.4998 9.33327 17.2018 9.33301 16.834V10.667H3.16699C2.7988 10.667 2.5 10.3682 2.5 10C2.50009 9.63188 2.79886 9.33398 3.16699 9.33398H9.33301V3.16699C9.33301 2.79891 9.63098 2.50018 9.99902 2.5Z" fill="#33363D"/>
</svg>
