<svg width="24" height="24" viewBox="0 0 24 24" fill="none" xmlns="http://www.w3.org/2000/svg">
<path fill-rule="evenodd" clip-rule="evenodd" d="M11.8509 4.9239C14.0162 2.75868 17.5267 2.75868 19.6919 4.92391C21.8571 7.08914 21.8571 10.5997 19.6919 12.7649L11.9911 20.4657C11.6786 20.7781 11.1721 20.7781 10.8597 20.4657C10.5473 20.1532 10.5473 19.6467 10.8597 19.3343L18.5605 11.6335C20.1009 10.0931 20.1009 7.59567 18.5605 6.05528C17.0201 4.5149 14.5227 4.51488 12.9823 6.05528L4.92108 14.1165C4.92107 14.1165 4.92108 14.1165 4.92108 14.1165C3.9575 15.0801 3.95749 16.6423 4.92108 17.6059C5.88466 18.5695 7.44692 18.5695 8.41051 17.6059L15.643 10.3735C15.9898 10.0267 15.9898 9.46439 15.643 9.1176C15.2962 8.77083 14.7339 8.77083 14.3871 9.1176L7.51506 15.9897C7.20264 16.3021 6.69611 16.3021 6.38369 15.9897C6.07127 15.6773 6.07127 15.1708 6.38369 14.8584L13.2558 7.98626C13.2557 7.98626 13.2558 7.98625 13.2558 7.98626C14.2274 7.01462 15.8028 7.01462 16.7744 7.98626C17.746 8.95788 17.746 10.5332 16.7744 11.5048L9.54188 18.7373C7.95346 20.3257 5.37812 20.3257 3.78969 18.7373C2.20129 17.1488 2.20129 14.5735 3.78969 12.9851L11.8509 4.9239Z" fill="#33363D"/>
</svg>
