<svg width="24" height="24" viewBox="0 0 24 24" fill="none" xmlns="http://www.w3.org/2000/svg">
<path fill-rule="evenodd" clip-rule="evenodd" d="M22 12.0002C22 12.2178 21.9113 12.426 21.7545 12.5769L16.5545 17.5769C16.236 17.8831 15.7296 17.8732 15.4233 17.5547C15.1171 17.2362 15.127 16.7298 15.4455 16.4235L19.2138 12.8002L2.80078 12.8002C2.35896 12.8002 2.00078 12.442 2.00078 12.0002C2.00078 11.5584 2.35896 11.2002 2.80078 11.2002L19.2138 11.2002L15.4455 7.57686C15.127 7.27063 15.1171 6.76419 15.4233 6.44571C15.7296 6.12722 16.236 6.11729 16.5545 6.42353L21.7545 11.4235C21.9113 11.5744 22 11.7826 22 12.0002Z" fill="#33363D"/>
</svg>
