<svg width="24" height="24" viewBox="0 0 24 24" fill="none" xmlns="http://www.w3.org/2000/svg">
<path d="M11.9982 5.7002C16.5176 5.7002 20.5841 8.18238 21.8546 11.5576C21.979 11.8885 21.997 12.2598 21.8849 12.6143C21.11 15.0622 18.0559 18.2998 11.9982 18.2998C5.9168 18.2996 2.92075 14.7467 2.13488 12.6416C2.00683 12.2985 2.00547 11.9315 2.11144 11.5986C2.66333 9.86509 4.0396 8.39152 5.78332 7.36133C7.53511 6.32641 9.71854 5.70028 11.9982 5.7002ZM11.9982 7.2998C10.0026 7.29989 8.10015 7.85013 6.59679 8.73828C5.08531 9.63127 4.03672 10.8282 3.63683 12.084C3.63651 12.085 3.63602 12.0862 3.63585 12.0869C4.20504 13.6042 6.62813 16.7 11.9982 16.7002C17.4325 16.7002 19.8163 13.8465 20.3595 12.1328C20.3594 12.1313 20.3589 12.1273 20.3566 12.1211C19.3773 9.51951 16.0276 7.2998 11.9982 7.2998ZM11.9991 8.2002C14.0978 8.2002 15.7988 9.90141 15.7989 12C15.7989 14.0987 14.0978 15.7998 11.9991 15.7998C9.90054 15.7997 8.19933 14.0986 8.19933 12C8.19944 9.90147 9.90061 8.2003 11.9991 8.2002ZM11.9991 9.7998C10.7843 9.79991 9.79905 10.7851 9.79894 12C9.79894 13.215 10.7842 14.2001 11.9991 14.2002C13.2142 14.2002 14.1993 13.215 14.1993 12C14.1992 10.7851 13.2141 9.7998 11.9991 9.7998Z" fill="#33363D"/>
</svg>
