<svg width="20" height="20" viewBox="0 0 20 20" fill="none" xmlns="http://www.w3.org/2000/svg">
<path fill-rule="evenodd" clip-rule="evenodd" d="M10.3376 16.4458C10.5839 16.7195 11.0055 16.7417 11.2791 16.4954L17.9458 10.4956C18.0863 10.3692 18.1665 10.1891 18.1665 10.0001C18.1665 9.81112 18.0863 9.631 17.9458 9.50457L11.2792 3.50417C11.0055 3.25785 10.584 3.28002 10.3377 3.55369C10.0913 3.82735 10.1135 4.24888 10.3872 4.49519L16.5033 10.0001L10.3872 15.5043C10.1135 15.7506 10.0913 16.1721 10.3376 16.4458Z" fill="#33363D"/>
<path fill-rule="evenodd" clip-rule="evenodd" d="M2.00439 16.4458C2.25069 16.7195 2.67221 16.7417 2.94589 16.4954L9.61256 10.4956C9.75303 10.3692 9.83325 10.1891 9.83326 10.0001C9.83326 9.81112 9.75305 9.631 9.61258 9.50457L2.94592 3.50417C2.67225 3.25785 2.25073 3.28002 2.00441 3.55369C1.75809 3.82735 1.78027 4.24888 2.05393 4.49519L8.17003 10.0001L2.05396 15.5043C1.78028 15.7506 1.75809 16.1721 2.00439 16.4458Z" fill="#33363D"/>
</svg>
