<svg width="20" height="20" viewBox="0 0 20 20" fill="none" xmlns="http://www.w3.org/2000/svg">
<path d="M9.33301 2.5C9.70106 2.50018 9.99903 2.7989 9.99902 3.16699C9.99894 3.535 9.70099 3.83381 9.33301 3.83398L3.83301 3.83301V16.1689H9.33301C9.70105 16.1691 9.99902 16.4679 9.99902 16.8359C9.99889 17.2039 9.70096 17.5018 9.33301 17.502H3.16699C2.79889 17.502 2.50014 17.204 2.5 16.8359V3.16699C2.5 2.99018 2.57029 2.82034 2.69531 2.69531C2.82034 2.57029 2.99018 2.5 3.16699 2.5H9.33301ZM12.3516 5.37109C12.6067 5.106 13.0286 5.09769 13.2939 5.35254L17.627 9.51953C17.7576 9.64518 17.832 9.81871 17.832 10C17.832 10.1813 17.7577 10.3548 17.627 10.4805L13.2939 14.6475C13.0285 14.9025 12.6067 14.8942 12.3516 14.6289C12.0964 14.3635 12.1048 13.9417 12.3701 13.6865L15.5098 10.667H7.5C7.13181 10.667 6.83301 10.3682 6.83301 10C6.8331 9.63189 7.13186 9.33398 7.5 9.33398H15.5098L12.3701 6.31445C12.1047 6.05926 12.0964 5.6365 12.3516 5.37109Z" fill="#33363D"/>
</svg>
