<svg width="24" height="24" viewBox="0 0 24 24" fill="none" xmlns="http://www.w3.org/2000/svg">
<path fill-rule="evenodd" clip-rule="evenodd" d="M21.5947 19.7351C21.2991 20.0635 20.7933 20.0902 20.4649 19.7946L12.4649 12.5944C12.2963 12.4427 12.2 12.2265 12.2 11.9998C12.2 11.773 12.2963 11.5568 12.4649 11.4051L20.4649 4.20513C20.7933 3.90956 21.2991 3.93618 21.5947 4.26459C21.8902 4.593 21.8636 5.09883 21.5352 5.3944L14.1959 11.9998L21.5352 18.6053C21.8636 18.9009 21.8902 19.4067 21.5947 19.7351Z" fill="#33363D"/>
<path fill-rule="evenodd" clip-rule="evenodd" d="M11.5947 19.7351C11.2991 20.0635 10.7933 20.0902 10.4649 19.7946L2.46486 12.5944C2.29629 12.4427 2.20004 12.2265 2.20004 11.9998C2.20004 11.773 2.2963 11.5568 2.46487 11.4051L10.4649 4.20513C10.7933 3.90956 11.2991 3.93618 11.5947 4.26459C11.8902 4.593 11.8636 5.09883 11.5352 5.3944L4.19591 11.9998L11.5352 18.6053C11.8636 18.9009 11.8902 19.4067 11.5947 19.7351Z" fill="#33363D"/>
</svg>
