<svg width="24" height="24" viewBox="0 0 24 24" fill="none" xmlns="http://www.w3.org/2000/svg">
<circle cx="12" cy="12" r="12" fill="#FEE500"/>
<path d="M12.0353 5.7915C8.30186 5.7915 5.29102 8.20016 5.29102 11.1243C5.29102 13.0223 6.54353 14.6843 8.4223 15.6333L7.78641 18.0083C7.77442 18.0439 7.77257 18.0821 7.78108 18.1187C7.78959 18.1553 7.80811 18.1888 7.83458 18.2154C7.87317 18.2495 7.92283 18.2683 7.97428 18.2684C8.01695 18.265 8.05743 18.2481 8.0899 18.2202L10.8262 16.3752C11.2301 16.431 11.6372 16.4599 12.0449 16.4619C15.7736 16.4619 18.7892 14.0532 18.7892 11.1243C18.7892 8.19534 15.7639 5.7915 12.0353 5.7915Z" fill="#392020"/>
<path d="M7.65141 10.281H6.91436C6.823 10.2837 6.73278 10.2603 6.65422 10.2136C6.61934 10.1917 6.58935 10.1629 6.56614 10.1289C6.54293 10.0949 6.52699 10.0565 6.51933 10.0161C6.51699 9.99042 6.51699 9.96467 6.51933 9.93903C6.51704 9.89105 6.52636 9.84321 6.54648 9.7996C6.56661 9.75599 6.59696 9.7179 6.63495 9.68852C6.71893 9.62769 6.8203 9.59556 6.92399 9.59696H9.14479C9.23687 9.59372 9.32771 9.61897 9.40493 9.66923C9.44063 9.69011 9.47125 9.71869 9.49457 9.75285C9.5179 9.78701 9.53335 9.8259 9.53981 9.86676C9.54217 9.89079 9.54217 9.915 9.53981 9.93903C9.54209 9.98769 9.53279 10.0362 9.5127 10.0806C9.4926 10.125 9.46227 10.1639 9.4242 10.1943C9.34226 10.2551 9.24187 10.2857 9.13997 10.281H8.42701V12.815C8.4299 12.869 8.42155 12.9229 8.40247 12.9735C8.3834 13.0241 8.35402 13.0702 8.31621 13.1088C8.27994 13.1458 8.23635 13.1747 8.18823 13.1938C8.14011 13.2129 8.08852 13.2217 8.0368 13.2196C7.94633 13.2222 7.85777 13.1933 7.7863 13.1378C7.71825 13.0835 7.67207 13.0065 7.65623 12.9209C7.65147 12.8858 7.65147 12.8501 7.65623 12.815L7.65141 10.281Z" fill="#FEE500"/>
<path d="M9.75235 9.78514C9.77354 9.70586 9.8233 9.63722 9.89205 9.59243C9.96532 9.55091 10.0488 9.53087 10.1329 9.53462H10.316C10.4052 9.53143 10.4936 9.55311 10.5713 9.59725C10.6536 9.65259 10.7121 9.73685 10.7351 9.8333L11.6986 12.5551C11.7235 12.6261 11.7445 12.6985 11.7612 12.7719C11.7628 12.8024 11.7628 12.8329 11.7612 12.8634C11.7628 12.9104 11.7542 12.9571 11.7359 13.0004C11.7176 13.0437 11.69 13.0824 11.6552 13.1139C11.6215 13.1485 11.5809 13.1758 11.5362 13.194C11.4914 13.2123 11.4434 13.2211 11.3951 13.2199C11.3208 13.2273 11.2461 13.2095 11.1832 13.1693C11.1203 13.1291 11.0727 13.0689 11.0482 12.9983L10.8459 12.4058H9.57893L9.3766 12.9983C9.35267 13.0703 9.30454 13.1316 9.24041 13.172C9.17629 13.2125 9.10013 13.2294 9.02493 13.2199C8.94347 13.222 8.86368 13.1966 8.79851 13.1476C8.73503 13.0972 8.69219 13.0252 8.67808 12.9454C8.67552 12.9181 8.67552 12.8907 8.67808 12.8634C8.66981 12.8156 8.66981 12.7668 8.67808 12.7189C8.67808 12.666 8.7118 12.6081 8.73107 12.5551L9.75235 9.78514ZM10.2341 10.4162L9.77644 11.8614H10.6869L10.2341 10.4162Z" fill="#FEE500"/>
<path d="M11.8715 9.93928C11.8666 9.83117 11.9047 9.72553 11.9775 9.64543C12.0145 9.60811 12.0589 9.57895 12.1079 9.55987C12.1568 9.54078 12.2092 9.53215 12.2617 9.53458C12.352 9.53353 12.44 9.56234 12.5122 9.6165C12.5791 9.67301 12.6236 9.75161 12.6375 9.83808C12.6422 9.87163 12.6422 9.90573 12.6375 9.93928V12.4732H13.9622C14.0541 12.472 14.1443 12.497 14.2224 12.5454C14.2575 12.5671 14.2876 12.5958 14.3108 12.6299C14.3341 12.6639 14.3499 12.7024 14.3573 12.743C14.3573 12.743 14.3573 12.7911 14.3573 12.8152C14.3596 12.8632 14.3502 12.911 14.3301 12.9546C14.31 12.9982 14.2796 13.0364 14.2417 13.0657C14.1577 13.1266 14.0563 13.1586 13.9526 13.1572H12.3243C12.2206 13.1639 12.1176 13.1369 12.0305 13.0802C11.9526 13.022 11.9007 12.9355 11.886 12.8393C11.8824 12.7864 11.8824 12.7333 11.886 12.6803L11.8715 9.93928Z" fill="#FEE500"/>
<path d="M14.4446 9.93943C14.4417 9.83163 14.4795 9.72672 14.5506 9.64558C14.6228 9.57997 14.7154 9.54123 14.8128 9.53596C14.9102 9.5307 15.0064 9.5592 15.0853 9.61664C15.1537 9.67265 15.1998 9.75122 15.2154 9.83822C15.2177 9.8719 15.2177 9.90575 15.2154 9.93943V11.1197L16.4341 9.71297C16.4811 9.66498 16.531 9.61997 16.5835 9.57813C16.633 9.54866 16.6897 9.5336 16.7473 9.53473C16.8315 9.53427 16.9138 9.55948 16.9833 9.607C17.0161 9.62906 17.0441 9.65751 17.0656 9.69062C17.0871 9.72373 17.1017 9.76082 17.1086 9.79971C17.1105 9.80924 17.1105 9.8191 17.1086 9.82864C17.1062 9.83976 17.1062 9.85121 17.1086 9.86233C17.1084 9.91302 17.0951 9.96283 17.07 10.0069C17.0445 10.0535 17.0138 10.0971 16.9785 10.1369L16.1788 11.0137L17.1423 12.5071V12.5552C17.1923 12.6243 17.2313 12.7007 17.2579 12.7817V12.8057C17.2635 12.8615 17.2554 12.9179 17.2345 12.9699C17.2135 13.0219 17.1802 13.0681 17.1375 13.1044C17.0571 13.1651 16.9588 13.1974 16.8581 13.196C16.7912 13.1987 16.7247 13.1837 16.6654 13.1526C16.6012 13.1095 16.5484 13.0517 16.5112 12.984L15.6152 11.5388L15.1865 11.9868V12.7913C15.1893 12.8991 15.1515 13.004 15.0805 13.0851C15.0424 13.1223 14.9971 13.1514 14.9474 13.1704C14.8977 13.1895 14.8446 13.1982 14.7914 13.196C14.7025 13.1978 14.6157 13.1689 14.5457 13.114C14.4777 13.0598 14.4315 12.9829 14.4157 12.8973C14.4109 12.8621 14.4109 12.8264 14.4157 12.7913L14.4446 9.93943Z" fill="#FEE500"/>
</svg>
