<svg width="24" height="24" viewBox="0 0 24 24" fill="none" xmlns="http://www.w3.org/2000/svg">
<path d="M13.5 2C13.7121 2 13.9154 2.08441 14.0654 2.23438L19.7646 7.93457C19.9146 8.08455 19.999 8.28792 19.999 8.5V11H20C20.5523 11 21 11.4477 21 12V18C21 18.5523 20.5523 19 20 19H19.999V20.2002C19.999 21.1943 19.1933 22 18.1992 22H5.7998C4.80578 21.9999 4 21.1942 4 20.2002V3.7998C4.00011 2.80585 4.80585 2.00011 5.7998 2H13.5ZM5.7998 3.59961C5.6895 3.59971 5.59971 3.6895 5.59961 3.7998V20.2002C5.59961 20.3106 5.68944 20.4003 5.7998 20.4004H18.1992C18.3097 20.4004 18.3994 20.3107 18.3994 20.2002V19H8C7.44772 19 7 18.5523 7 18V12C7 11.4477 7.44772 11 8 11H18.3994V9.2998H14.5C13.5059 9.2998 12.7002 8.49411 12.7002 7.5V3.59961H5.7998ZM14.2998 7.5C14.2998 7.61046 14.3895 7.7002 14.5 7.7002H17.2686L14.2998 4.73145V7.5Z" fill="#33363D"/>
<path d="M8.47803 17V12.7515H9.18164V14.5186H10.9004V12.7515H11.604V17H10.9004V15.1147H9.18164V17H8.47803ZM12.1465 12.7515H12.8931L13.3281 15.0933C13.3962 15.4943 13.457 15.8739 13.5107 16.2319H13.5376C13.645 15.6375 13.7148 15.258 13.7471 15.0933L14.2466 12.7515H14.9609L15.4658 15.0933C15.4909 15.2114 15.5285 15.4155 15.5786 15.7056C15.6323 15.992 15.6646 16.1675 15.6753 16.2319H15.7021C15.7201 16.1209 15.7505 15.9312 15.7935 15.6626C15.84 15.394 15.8722 15.2043 15.8901 15.0933L16.3198 12.7515H17.0664L16.1104 17H15.2993L14.8159 14.6904C14.6906 14.0208 14.6243 13.661 14.6172 13.6108H14.5957C14.5957 13.6216 14.5295 13.9814 14.397 14.6904L13.9136 17H13.1079L12.1465 12.7515ZM17.6089 17V12.7515H19.2686C19.7126 12.7515 20.0581 12.8714 20.3052 13.1113C20.5558 13.3477 20.6812 13.661 20.6812 14.0513C20.6812 14.4523 20.5522 14.7692 20.2944 15.002C20.0402 15.2347 19.7018 15.3511 19.2793 15.3511H18.3179V17H17.6089ZM18.3179 14.7495H19.1826C19.4261 14.7495 19.6159 14.6904 19.752 14.5723C19.888 14.4541 19.9561 14.2804 19.9561 14.0513C19.9561 13.8257 19.8898 13.6538 19.7573 13.5356C19.6248 13.4175 19.4315 13.3584 19.1772 13.3584H18.3179V14.7495Z" fill="white"/>
</svg>
