<svg width="48" height="48" viewBox="0 0 48 48" fill="none" xmlns="http://www.w3.org/2000/svg">
<path d="M24 16C33.9411 16 42 13.3137 42 10C42 6.68629 33.9411 4 24 4C14.0589 4 6 6.68629 6 10C6 13.3137 14.0589 16 24 16Z" stroke="black" stroke-width="2" stroke-linecap="round" stroke-linejoin="round"/>
<path d="M6.00013 10V38C5.989 38.9618 6.67173 39.9105 7.9908 40.7659C9.30986 41.6214 11.2266 42.3586 13.5794 42.9155C15.9322 43.4723 18.6522 43.8324 21.51 43.9655C24.3678 44.0985 27.2796 44.0006 30.0001 43.68" stroke="black" stroke-width="2" stroke-linecap="round" stroke-linejoin="round"/>
<path d="M42 10V16" stroke="black" stroke-width="2" stroke-linecap="round" stroke-linejoin="round"/>
<path d="M42 24L36 34H44L38 44" stroke="#256EF4" stroke-width="2" stroke-linecap="round" stroke-linejoin="round"/>
<path d="M6 24C6.00289 24.9351 6.66137 25.857 7.92291 26.6921C9.18445 27.5273 11.0141 28.2526 13.2659 28.8102C15.5177 29.3678 18.1294 29.7423 20.8924 29.9037C23.6555 30.0652 26.4935 30.0091 29.18 29.74" stroke="black" stroke-width="2" stroke-linecap="round" stroke-linejoin="round"/>
</svg>
