<svg width="20" height="20" viewBox="0 0 20 20" fill="none" xmlns="http://www.w3.org/2000/svg">
<path d="M0 10C0 4.47715 4.47715 0 10 0C15.5228 0 20 4.47715 20 10C20 15.5228 15.5228 20 10 20C4.47715 20 0 15.5228 0 10Z" fill="#256EF4"/>
<path d="M10 3.7998C13.4242 3.7998 16.2002 6.57583 16.2002 10C16.2002 13.4242 13.4242 16.2002 10 16.2002C6.57583 16.2002 3.7998 13.4242 3.7998 10C3.7998 6.57583 6.57583 3.7998 10 3.7998Z" fill="#256EF4"/>
<path d="M10 3.7998C13.4242 3.7998 16.2002 6.57583 16.2002 10C16.2002 13.4242 13.4242 16.2002 10 16.2002C6.57583 16.2002 3.7998 13.4242 3.7998 10C3.7998 6.57583 6.57583 3.7998 10 3.7998Z" stroke="white" stroke-width="1.6"/>
</svg>
